<?xml version="1.0" encoding="utf-8"?>
<!-- Generator: Adobe Illustrator 15.1.0, SVG Export Plug-In . SVG Version: 6.00 Build 0)  -->
<!DOCTYPE svg PUBLIC "-//W3C//DTD SVG 1.1//EN" "http://www.w3.org/Graphics/SVG/1.1/DTD/svg11.dtd">
<svg version="1.1" id="Layer_1" xmlns="http://www.w3.org/2000/svg" xmlns:xlink="http://www.w3.org/1999/xlink" x="0px" y="0px"
	 width="1417.32px" height="1417.32px" viewBox="0 0 1417.32 1417.32" enable-background="new 0 0 1417.32 1417.32"
	 xml:space="preserve">
<path fill-rule="evenodd" clip-rule="evenodd" fill="#FFFFFF" d="M1811.788,267.137"/>
<path fill-rule="evenodd" clip-rule="evenodd" fill="#FFFFFF" d="M-121.096,46"/>
<path fill-rule="evenodd" clip-rule="evenodd" d="M1148.509,413.333c5.226,103.23-99.312,96.699-117.6,176.4
	c-151.823-112.36-370.931-248.852-617.399-176.4C538.402,238.01,1016.683,263.634,1148.509,413.333z"/>
<path fill-rule="evenodd" clip-rule="evenodd" d="M354.71,442.733c263.336,1.263,403.589,125.61,558.599,235.2
	C832.847,803.27,699.771,875.994,619.31,1001.332C462.017,884.221,367.17,704.677,354.71,442.733z"/>
<path fill-rule="evenodd" clip-rule="evenodd" d="M295.909,501.533c-103.675,306.962,358.915,596.182,58.801,764.399
	C160.538,1105.768,142.694,716.047,295.909,501.533z"/>
<path fill-rule="evenodd" clip-rule="evenodd" d="M825.109,883.732c142.492,97.057,378.668,242.621,352.8,411.6
	C1035.416,1198.274,799.255,1052.711,825.109,883.732z"/>
</svg>
