<?xml version="1.0" encoding="utf-8"?>
<!-- Generator: Adobe Illustrator 15.1.0, SVG Export Plug-In . SVG Version: 6.00 Build 0)  -->
<!DOCTYPE svg PUBLIC "-//W3C//DTD SVG 1.1//EN" "http://www.w3.org/Graphics/SVG/1.1/DTD/svg11.dtd">
<svg version="1.1" id="Layer_1" xmlns="http://www.w3.org/2000/svg" xmlns:xlink="http://www.w3.org/1999/xlink" x="0px" y="0px"
	 width="1417.32px" height="1417.32px" viewBox="0 0 1417.32 1417.32" enable-background="new 0 0 1417.32 1417.32"
	 xml:space="preserve">
<path fill="#FFFFFF" d="M1811.788,267.137"/>
<path fill="#FFFFFF" d="M-121.096,46"/>
<path d="M174.808,305.406c16.007,0,31.991,0,47.998,0c106.542,45.441,19.968,284.001,47.998,407.979
	c80.551,55.451,263.588,8.392,383.981,23.999c0-111.979,0-224.004,0-335.982c176.616,7.358,394.902-26.904,503.976,47.998
	c98.619,93.676,91.12,420.447,47.998,575.971c-105.745,33.749-65.014-78.979-71.997-143.992c-279.994,0-559.965,0-839.958,0
	c-71.599,0.376,33.842,177.836-71.997,143.992C112.842,879.362,205.322,530.887,174.808,305.406z"/>
<path d="M582.788,473.398c72.723,234.104-227.356,237.128-263.987,95.994C329.722,417.197,495.792,360.012,582.788,473.398z"/>
</svg>
