<?xml version="1.0" encoding="utf-8"?>
<!-- Generator: Adobe Illustrator 15.1.0, SVG Export Plug-In . SVG Version: 6.00 Build 0)  -->
<!DOCTYPE svg PUBLIC "-//W3C//DTD SVG 1.1//EN" "http://www.w3.org/Graphics/SVG/1.1/DTD/svg11.dtd">
<svg version="1.1" id="Layer_1" xmlns="http://www.w3.org/2000/svg" xmlns:xlink="http://www.w3.org/1999/xlink" x="0px" y="0px"
	 width="1417.32px" height="1417.32px" viewBox="0 0 1417.32 1417.32" enable-background="new 0 0 1417.32 1417.32"
	 xml:space="preserve">
<path fill-rule="evenodd" clip-rule="evenodd" d="M819.381,140.038c6.021-61.894,102.984-15.237,117.199,0
	C998.923,352.799,698.828,268.991,819.381,140.038z"/>
<path fill-rule="evenodd" clip-rule="evenodd" d="M1030.34,536.736c-30.616,101.861-222.038-40.47-257.839-105.786
	c-51.515,30.037-77.874,88.444-140.639,105.786c63.303,83.692,207.01,341.093,70.319,476.039
	c-67.207-153.385-57.718-393.276-210.958-449.592C539.773,143.537,886.942,365.647,1030.34,536.736z"/>
<path fill-rule="evenodd" clip-rule="evenodd" d="M561.542,748.309c37.621,97.845,34.164,276.693-23.44,343.805
	c-81.445,84.711-293.594,66.167-351.599-26.447C35.563,751.11,387.219,537.821,561.542,748.309z M233.384,1039.221
	c154.385,154.224,399.473-32.646,281.278-264.466C360.277,620.531,115.188,807.4,233.384,1039.221z"/>
<path fill-rule="evenodd" clip-rule="evenodd" d="M1217.859,748.309c37.62,97.845,34.164,276.693-23.44,343.805
	c-81.444,84.711-293.594,66.167-351.599-26.447C691.88,751.11,1043.537,537.821,1217.859,748.309z M889.701,1039.221
	c154.385,154.224,399.472-32.646,281.277-264.466C1016.594,620.531,771.506,807.4,889.701,1039.221z"/>
<path fill-rule="evenodd" clip-rule="evenodd" d="M514.662,774.755c118.195,231.82-126.894,418.689-281.278,264.466
	C115.188,807.4,360.277,620.531,514.662,774.755z"/>
<path fill-rule="evenodd" clip-rule="evenodd" d="M1170.979,774.755c118.194,231.82-126.893,418.689-281.277,264.466
	C771.506,807.4,1016.594,620.531,1170.979,774.755z"/>
<path fill-rule="evenodd" clip-rule="evenodd" fill="#FFFFFF" d="M230,95c393.669,0,787.323,0,1181,0"/>
<path fill-rule="evenodd" clip-rule="evenodd" d="M936.58,140.038c-14.215-15.237-111.179-61.894-117.199,0
	C698.828,268.991,998.923,352.799,936.58,140.038z"/>
<path fill-rule="evenodd" clip-rule="evenodd" d="M491.223,563.183c153.24,56.315,143.752,296.207,210.958,449.592
	c136.691-134.945-7.016-392.347-70.319-476.039c62.765-17.342,89.125-75.749,140.639-105.786
	c35.801,65.316,227.223,207.647,257.839,105.786C886.942,365.647,539.773,143.537,491.223,563.183z"/>
<path fill-rule="evenodd" clip-rule="evenodd" d="M186.503,1065.666c58.005,92.614,270.154,111.158,351.599,26.447
	c57.604-67.111,61.061-245.96,23.44-343.805C387.219,537.821,35.563,751.11,186.503,1065.666z"/>
<path fill-rule="evenodd" clip-rule="evenodd" d="M842.82,1065.666c58.005,92.614,270.154,111.158,351.599,26.447
	c57.604-67.111,61.061-245.96,23.44-343.805C1043.537,537.821,691.88,751.11,842.82,1065.666z"/>
</svg>
