<?xml version="1.0" encoding="utf-8"?>
<!-- Generator: Adobe Illustrator 15.1.0, SVG Export Plug-In . SVG Version: 6.00 Build 0)  -->
<!DOCTYPE svg PUBLIC "-//W3C//DTD SVG 1.1//EN" "http://www.w3.org/Graphics/SVG/1.1/DTD/svg11.dtd">
<svg version="1.1" id="Layer_1" xmlns="http://www.w3.org/2000/svg" xmlns:xlink="http://www.w3.org/1999/xlink" x="0px" y="0px"
	 width="1417.32px" height="1417.32px" viewBox="0 0 1417.32 1417.32" enable-background="new 0 0 1417.32 1417.32"
	 xml:space="preserve">
<path fill-rule="evenodd" clip-rule="evenodd" fill="#FFFFFF" d="M230,95c393.669,0,787.323,0,1181,0"/>
<path fill-rule="evenodd" clip-rule="evenodd" d="M598.539,95c100.422,0,200.826,0,301.244,0c0,53.623,0,107.252,0,160.873
	c129.149-21.738,197.305,21.644,251.04,80.445c-12.75,313.318,139.812,441.425,0,697.149
	c-108.409,17.461-140.712-46.32-200.827-80.438c-57.901,91.292-327.58,129.902-376.552,0
	c-92.032,8.939-101.342,106.259-225.94,80.438c-139.783-255.725,12.75-383.831,0-697.149
	c53.736-58.802,121.89-102.184,251.036-80.445C598.539,202.252,598.539,148.623,598.539,95z M447.921,577.636
	c203.775-87.444,398.723-87.444,602.479,0c0-71.498,0-143.003,0-214.502c-200.826,0-401.653,0-602.479,0
	C447.921,434.633,447.921,506.139,447.921,577.636z"/>
<path fill-rule="evenodd" clip-rule="evenodd" d="M1251.24,1221.161c-283.736,64.995-686.5,6.396-1004.14,26.81
	c150.049-241.186,471.794,17.901,677.796-134.068C990.252,1196.048,1209.394,1113.918,1251.24,1221.161z"/>
<path fill-rule="evenodd" clip-rule="evenodd" fill="#FFFFFF" d="M-1166.91,348c1002.979,0,2005.914,0,3008.91,0"/>
<path fill-rule="evenodd" clip-rule="evenodd" d="M924.896,1113.902c-206.002,151.97-527.747-107.117-677.796,134.068
	c317.64-20.413,720.404,38.186,1004.14-26.81C1209.394,1113.918,990.252,1196.048,924.896,1113.902z"/>
</svg>
