<?xml version="1.0" encoding="utf-8"?>
<!-- Generator: Adobe Illustrator 15.1.0, SVG Export Plug-In . SVG Version: 6.00 Build 0)  -->
<!DOCTYPE svg PUBLIC "-//W3C//DTD SVG 1.1//EN" "http://www.w3.org/Graphics/SVG/1.1/DTD/svg11.dtd">
<svg version="1.1" id="Layer_1" xmlns="http://www.w3.org/2000/svg" xmlns:xlink="http://www.w3.org/1999/xlink" x="0px" y="0px"
	 width="1417.32px" height="1417.32px" viewBox="0 0 1417.32 1417.32" enable-background="new 0 0 1417.32 1417.32"
	 xml:space="preserve">
<path fill-rule="evenodd" clip-rule="evenodd" d="M1300.163,330.577c0,294.19,0,588.381,0,882.585
	c-349.272-18.663-876.181-22.825-1227.905,0c0-294.204,0-588.395,0-882.585c190.169-97.127,423.781-97.127,613.953,0
	C876.383,233.45,1109.994,233.45,1300.163,330.577z M686.21,421.879c0,243.472,0,486.944,0,730.416
	c163.246-75.669,300.273-86.339,502.325-60.867c0-243.472,0-486.944,0-730.417C994.522,352.333,814.218,358.589,686.21,421.879z"/>
</svg>
