<?xml version="1.0" encoding="utf-8"?>
<!-- Generator: Adobe Illustrator 15.1.0, SVG Export Plug-In . SVG Version: 6.00 Build 0)  -->
<!DOCTYPE svg PUBLIC "-//W3C//DTD SVG 1.1//EN" "http://www.w3.org/Graphics/SVG/1.1/DTD/svg11.dtd">
<svg version="1.1" id="Layer_1" xmlns="http://www.w3.org/2000/svg" xmlns:xlink="http://www.w3.org/1999/xlink" x="0px" y="0px"
	 width="1417.32px" height="1417.32px" viewBox="0 0 1417.32 1417.32" enable-background="new 0 0 1417.32 1417.32"
	 xml:space="preserve">
<path fill-rule="evenodd" clip-rule="evenodd" d="M284,327.912c171.062,0,342.175,0,513.237,0c0,68.428,0,136.868,0,205.295
	c171.062,0,342.175,0,513.237,0c0,239.514,0,479.018,0,718.532c-342.175,0-684.3,0-1026.475,0C284,943.797,284,635.854,284,327.912z
	 M489.295,533.207c0-34.22,0-68.427,0-102.647c-34.232,0-68.415,0-102.647,0C366.725,518.922,400.932,553.129,489.295,533.207z
	 M694.59,533.207c0-34.22,0-68.427,0-102.647c-34.232,0-68.415,0-102.647,0C572.019,518.922,606.227,553.129,694.59,533.207z
	 M489.295,738.502c0-34.22,0-68.428,0-102.648c-34.232,0-68.415,0-102.647,0C366.725,724.217,400.932,758.424,489.295,738.502z
	 M694.59,738.502c0-34.22,0-68.428,0-102.648c-34.232,0-68.415,0-102.647,0C572.019,724.217,606.227,758.424,694.59,738.502z
	 M899.885,789.826c39.846,108.26-142.494-5.615-102.647,102.646c-39.847,108.262,142.493-5.613,102.647,102.648
	c28.018,105.016-157.43-3.459-102.647,128.309c86.107,59.293,281.829,8.984,410.589,25.662c0-171.076,0-342.162,0-513.238
	c-136.879,0-273.709,0-410.589,0C737.77,780.854,911.111,693.067,899.885,789.826z M489.295,943.797c0-34.221,0-68.428,0-102.648
	c-34.232,0-68.415,0-102.647,0C366.725,929.512,400.932,963.719,489.295,943.797z M694.59,943.797c0-34.221,0-68.428,0-102.648
	c-34.232,0-68.415,0-102.647,0C572.019,929.512,606.227,963.719,694.59,943.797z M489.295,1149.092c0-34.221,0-68.428,0-102.648
	c-34.232,0-68.415,0-102.647,0C366.725,1134.807,400.932,1169.014,489.295,1149.092z M694.59,1149.092c0-34.221,0-68.428,0-102.648
	c-34.232,0-68.415,0-102.647,0C572.019,1134.807,606.227,1169.014,694.59,1149.092z"/>
<path fill-rule="evenodd" clip-rule="evenodd" d="M797.237,635.854c136.88,0,273.71,0,410.589,0c0,171.076,0,342.162,0,513.238
	c-128.76-16.678-324.481,33.631-410.589-25.662c-54.782-131.768,130.665-23.293,102.647-128.309
	c39.846-108.262-142.494,5.613-102.647-102.648c-39.847-108.262,142.493,5.613,102.647-102.646
	C911.111,693.067,737.77,780.854,797.237,635.854z M1105.18,841.148c0-34.219,0-68.428,0-102.646c-34.232,0-68.415,0-102.647,0
	C982.609,826.865,1016.816,861.072,1105.18,841.148z M1105.18,1046.443c0-34.219,0-68.428,0-102.646c-34.232,0-68.415,0-102.647,0
	C982.609,1032.16,1016.816,1066.367,1105.18,1046.443z"/>
</svg>
