<?xml version="1.0" encoding="utf-8"?>
<!-- Generator: Adobe Illustrator 15.1.0, SVG Export Plug-In . SVG Version: 6.00 Build 0)  -->
<!DOCTYPE svg PUBLIC "-//W3C//DTD SVG 1.1//EN" "http://www.w3.org/Graphics/SVG/1.1/DTD/svg11.dtd">
<svg version="1.1" id="Layer_1" xmlns="http://www.w3.org/2000/svg" xmlns:xlink="http://www.w3.org/1999/xlink" x="0px" y="0px"
	 width="1417.32px" height="1417.32px" viewBox="0 0 1417.32 1417.32" enable-background="new 0 0 1417.32 1417.32"
	 xml:space="preserve">
<path fill="#FFFFFF" d="M1811.788,267.137"/>
<path fill="#FFFFFF" d="M-121.096,46"/>
<path d="M163,165.859c186.809,0,373.631,0,560.44,0c0,72.609,0,145.231,0,217.84c186.809,0,373.632,0,560.439,0
	c0,254.15,0,508.289,0,762.438c-373.632,0-747.25,0-1120.881,0C163,819.379,163,492.62,163,165.859z M387.176,383.7
	c0-36.312,0-72.609,0-108.92c-37.367,0-74.721,0-112.088,0C253.333,368.542,290.686,404.84,387.176,383.7z M611.352,383.7
	c0-36.312,0-72.609,0-108.92c-37.366,0-74.721,0-112.088,0C477.509,368.542,514.862,404.84,611.352,383.7z M387.176,601.54
	c0-36.312,0-72.609,0-108.92c-37.367,0-74.721,0-112.088,0C253.333,586.382,290.686,622.68,387.176,601.54z M611.352,601.54
	c0-36.312,0-72.609,0-108.92c-37.366,0-74.721,0-112.088,0C477.509,586.382,514.862,622.68,611.352,601.54z M835.528,656
	c43.497,114.876-155.585-5.957-112.088,108.92c-43.497,114.876,155.585-5.957,112.088,108.92
	c30.607,111.432-171.909-3.67-112.088,136.149c94.04,62.916,307.763,9.532,448.353,27.229c0-181.528,0-363.07,0-544.599
	c-149.455,0-298.896,0-448.354,0C658.502,646.479,847.773,553.329,835.528,656z M387.176,819.379c0-36.311,0-72.607,0-108.92
	c-37.367,0-74.721,0-112.088,0C253.333,804.222,290.686,840.52,387.176,819.379z M611.352,819.379c0-36.311,0-72.607,0-108.92
	c-37.366,0-74.721,0-112.088,0C477.509,804.222,514.862,840.52,611.352,819.379z M387.176,1037.219c0-36.311,0-72.607,0-108.92
	c-37.367,0-74.721,0-112.088,0C253.333,1022.062,290.686,1058.359,387.176,1037.219z M611.352,1037.219c0-36.311,0-72.607,0-108.92
	c-37.366,0-74.721,0-112.088,0C477.509,1022.062,514.862,1058.359,611.352,1037.219z"/>
<path d="M947.616,601.54c37.368,0,74.722,0,112.089,0c0,36.311,0,72.609,0,108.919C963.215,731.6,925.861,695.302,947.616,601.54z"
	/>
<path d="M947.616,819.379c37.368,0,74.722,0,112.089,0c0,36.312,0,72.609,0,108.92C963.215,949.439,925.861,913.143,947.616,819.379
	z"/>
</svg>
