<?xml version="1.0" encoding="utf-8"?>
<!-- Generator: Adobe Illustrator 15.1.0, SVG Export Plug-In . SVG Version: 6.00 Build 0)  -->
<!DOCTYPE svg PUBLIC "-//W3C//DTD SVG 1.1//EN" "http://www.w3.org/Graphics/SVG/1.1/DTD/svg11.dtd">
<svg version="1.1" id="Layer_1" xmlns="http://www.w3.org/2000/svg" xmlns:xlink="http://www.w3.org/1999/xlink" x="0px" y="0px"
	 width="1417.32px" height="1417.32px" viewBox="0 0 1417.32 1417.32" enable-background="new 0 0 1417.32 1417.32"
	 xml:space="preserve">
<path fill="#FFFFFF" d="M1811.788,267.137"/>
<path fill="#FFFFFF" d="M-121.096,46"/>
<path fill="#FFFFFF" d="M499.264,492.62c37.367,0,74.722,0,112.088,0c0,36.311,0,72.608,0,108.92
	C514.862,622.68,477.509,586.382,499.264,492.62z"/>
<path fill="#FFFFFF" d="M499.264,710.459c37.367,0,74.722,0,112.088,0c0,36.312,0,72.609,0,108.92
	C514.862,840.52,477.509,804.222,499.264,710.459z"/>
<path fill="#FFFFFF" d="M499.264,928.299c37.367,0,74.722,0,112.088,0c0,36.312,0,72.609,0,108.92
	C514.862,1058.359,477.509,1022.062,499.264,928.299z"/>
<path d="M888.615,581.277c56.388,63.463,229.651,10.006,331.842,27.652c0,184.353,0,368.717,0,553.069
	c-331.842,0-663.684,0-995.523,0c0-258.104,0-516.193,0-774.296c101.404,0,202.782,0,304.186,0
	C596.039,27.776,982.486,144.413,888.615,581.277z M778,387.703c0-36.876,0-73.738,0-110.614c-36.888,0-73.725,0-110.612,0
	C645.917,372.31,682.781,409.172,778,387.703z M446.161,608.93c0-36.876,0-73.737,0-110.613c-36.891,0-73.724,0-110.615,0
	C314.078,593.538,350.939,630.399,446.161,608.93z M778,608.93c0-36.876,0-73.737,0-110.613c-36.888,0-73.725,0-110.612,0
	C645.917,593.538,682.781,630.399,778,608.93z M446.161,830.158c0-36.876,0-73.738,0-110.614c-36.891,0-73.724,0-110.615,0
	C314.078,814.765,350.939,851.627,446.161,830.158z M778,830.158c0-36.876,0-73.738,0-110.614c-36.888,0-73.725,0-110.612,0
	C645.917,814.765,682.781,851.627,778,830.158z M1109.842,830.158c0-36.876,0-73.738,0-110.614c-36.859,0-73.725,0-110.611,0
	C977.76,814.765,1014.62,851.627,1109.842,830.158z M446.161,1051.384c0-36.874,0-73.736,0-110.611c-36.891,0-73.724,0-110.615,0
	C314.078,1035.992,350.939,1072.854,446.161,1051.384z M778,1051.384c0-36.874,0-73.736,0-110.611c-36.888,0-73.725,0-110.612,0
	C645.917,1035.992,682.781,1072.854,778,1051.384z M1109.842,1051.384c0-36.874,0-73.736,0-110.611c-36.859,0-73.725,0-110.611,0
	C977.76,1035.992,1014.62,1072.854,1109.842,1051.384z"/>
</svg>
