<?xml version="1.0" encoding="utf-8"?>
<!-- Generator: Adobe Illustrator 15.1.0, SVG Export Plug-In . SVG Version: 6.00 Build 0)  -->
<!DOCTYPE svg PUBLIC "-//W3C//DTD SVG 1.1//EN" "http://www.w3.org/Graphics/SVG/1.1/DTD/svg11.dtd">
<svg version="1.1" id="Layer_1" xmlns="http://www.w3.org/2000/svg" xmlns:xlink="http://www.w3.org/1999/xlink" x="0px" y="0px"
	 width="1417.32px" height="1417.32px" viewBox="0 0 1417.32 1417.32" enable-background="new 0 0 1417.32 1417.32"
	 xml:space="preserve">
<path fill-rule="evenodd" clip-rule="evenodd" d="M1181.648,198.388c114.088,262.954,80.422,785.001-60.375,987.868
	c-124.848-158.379-599.652-158.379-724.5,0C255.977,983.39,222.311,461.342,336.398,198.388
	C575.806,101.09,942.242,101.09,1181.648,198.388z M396.773,621.76c241.5,0,483,0,724.5,0c0-94.087,0-188.16,0-282.248
	c-241.5,0-483,0-724.5,0C396.773,433.6,396.773,527.673,396.773,621.76z M577.898,819.333c-18.307-16.262-143.184-66.055-150.938,0
	C271.719,956.957,658.202,1046.399,577.898,819.333z M1121.273,819.333c-18.307-16.262-143.184-66.055-150.938,0
	C815.095,956.957,1201.578,1046.399,1121.273,819.333z"/>
</svg>
