<?xml version="1.0" encoding="utf-8"?>
<!-- Generator: Adobe Illustrator 15.1.0, SVG Export Plug-In . SVG Version: 6.00 Build 0)  -->
<!DOCTYPE svg PUBLIC "-//W3C//DTD SVG 1.1//EN" "http://www.w3.org/Graphics/SVG/1.1/DTD/svg11.dtd">
<svg version="1.1" id="Layer_1" xmlns="http://www.w3.org/2000/svg" xmlns:xlink="http://www.w3.org/1999/xlink" x="0px" y="0px"
	 width="1417.32px" height="1417.32px" viewBox="0 0 1417.32 1417.32" enable-background="new 0 0 1417.32 1417.32"
	 xml:space="preserve">
<path fill-rule="evenodd" clip-rule="evenodd" d="M1043.236,215c154.761,23.149,244.095,111.724,278.474,255.267
	C1254.833,451.559,1149.023,272.018,1043.236,215z"/>
<path fill-rule="evenodd" clip-rule="evenodd" d="M996.824,307.824c-35.715,144.018,64.271,152.324,92.824,232.061
	c77.347,0,154.715,0,232.062,0c-10.018,183.371,23.342,410.105-23.206,556.945c-202.351,74.604-679.48,74.604-881.831,0
	c-37.166-171.836-37.166-477.934,0-649.77C620.429,411.027,720.618,271.417,996.824,307.824z M625.527,725.533
	c-60.87,423.975,576.027,333.927,464.121-46.412c-37.007-125.787-181.841-172.085-324.885-116.03
	C649.481,608.268,632.077,679.892,625.527,725.533z"/>
<path fill-rule="evenodd" clip-rule="evenodd" d="M1043.236,354.236c91.669,1.156,138.081,47.568,139.236,139.236
	C1130.282,452.839,1083.87,406.427,1043.236,354.236z"/>
<path fill-rule="evenodd" clip-rule="evenodd" d="M811.176,655.915c96.972-40.758,185.648-10.266,185.648,116.03
	C996.824,1091.742,519.899,778.336,811.176,655.915z"/>
<path fill-rule="evenodd" clip-rule="evenodd" d="M1321.71,470.267C1287.331,326.724,1197.997,238.149,1043.236,215
	C1149.023,272.018,1254.833,451.559,1321.71,470.267z"/>
<path fill-rule="evenodd" clip-rule="evenodd" d="M1182.473,493.473c-1.155-91.668-47.567-138.081-139.236-139.236
	C1083.87,406.427,1130.282,452.839,1182.473,493.473z"/>
</svg>
