<?xml version="1.0" encoding="utf-8"?>
<!-- Generator: Adobe Illustrator 15.1.0, SVG Export Plug-In . SVG Version: 6.00 Build 0)  -->
<!DOCTYPE svg PUBLIC "-//W3C//DTD SVG 1.1//EN" "http://www.w3.org/Graphics/SVG/1.1/DTD/svg11.dtd">
<svg version="1.1" id="Layer_1" xmlns="http://www.w3.org/2000/svg" xmlns:xlink="http://www.w3.org/1999/xlink" x="0px" y="0px"
	 width="1417.32px" height="1417.32px" viewBox="0 0 1417.32 1417.32" enable-background="new 0 0 1417.32 1417.32"
	 xml:space="preserve">
<path fill="#FFFFFF" d="M1811.788,267.137"/>
<path fill="#FFFFFF" d="M-121.096,46"/>
<path d="M748.729,127c227.995,34.009,357.049,166.936,405.678,380.322c-85.076,58.583-278.481,8.876-405.678,25.354
	C748.729,397.447,748.729,262.229,748.729,127z"/>
<path d="M317.698,481.967c66.878-7.713,65.393,52.938,76.063,101.419c253.548,0,507.097,0,760.645,0
	c-100.354,200.845-44.816,283.014-76.064,507.097c-60.713,15.34-115.682,36.446-202.838,25.354
	c-64.773-19.76-42.984-126.044-126.773-126.774c-133.979-32.56-105.134,97.705-177.483,126.774
	c-87.157,11.092-142.125-10.016-202.838-25.354C302.024,865.818,511.87,644.979,190.924,532.677
	C164.9,447.476,269.786,493.208,317.698,481.967z M571.246,912.999c-15.376-14.608-120.262-59.339-126.774,0
	C314.083,1036.629,638.694,1116.977,571.246,912.999z M1027.633,912.999c-15.377-14.608-120.262-59.339-126.773,0
	C770.469,1036.629,1095.08,1116.977,1027.633,912.999z"/>
</svg>
