<?xml version="1.0" encoding="utf-8"?>
<!-- Generator: Adobe Illustrator 15.1.0, SVG Export Plug-In . SVG Version: 6.00 Build 0)  -->
<!DOCTYPE svg PUBLIC "-//W3C//DTD SVG 1.1//EN" "http://www.w3.org/Graphics/SVG/1.1/DTD/svg11.dtd">
<svg version="1.1" id="Layer_1" xmlns="http://www.w3.org/2000/svg" xmlns:xlink="http://www.w3.org/1999/xlink" x="0px" y="0px"
	 width="1417.32px" height="1417.32px" viewBox="0 0 1417.32 1417.32" enable-background="new 0 0 1417.32 1417.32"
	 xml:space="preserve">
<path fill-rule="evenodd" clip-rule="evenodd" d="M439.001,174.883c-59.333,73.494-168.484,205.073-250.44,175.309
	C221.211,250.015,341.662,129.735,439.001,174.883z"/>
<path fill-rule="evenodd" clip-rule="evenodd" d="M914.838,149.839c102.279,39.645,194.287,89.55,225.396,200.353
	C1074.592,375.773,873.946,230.804,914.838,149.839z"/>
<path fill-rule="evenodd" clip-rule="evenodd" d="M639.354,250.015c499.731-43.656,640.972,708.62,175.309,851.499
	C254.179,1273.495-57.551,310.901,639.354,250.015z M313.781,550.544c-179.124,705.146,844.258,563.075,701.233,0
	C965.953,357.406,757.139,282.25,539.178,350.191C406.131,391.658,331.072,482.431,313.781,550.544z"/>
<path fill-rule="evenodd" clip-rule="evenodd" d="M614.31,425.324c25.044,0,50.088,0,75.132,0
	c-62.977,263.317,93.915,306.778,175.309,425.749c-103.526-21.693-146.914-103.527-250.44-125.221
	C614.31,625.676,614.31,525.5,614.31,425.324z"/>
<path fill-rule="evenodd" clip-rule="evenodd" d="M188.561,350.191c81.956,29.764,191.107-101.815,250.44-175.309
	C341.662,129.735,221.211,250.015,188.561,350.191z"/>
<path fill-rule="evenodd" clip-rule="evenodd" d="M1140.234,350.191c-31.109-110.803-123.117-160.708-225.396-200.353
	C873.946,230.804,1074.592,375.773,1140.234,350.191z"/>
</svg>
