<?xml version="1.0" encoding="utf-8"?>
<!-- Generator: Adobe Illustrator 15.1.0, SVG Export Plug-In . SVG Version: 6.00 Build 0)  -->
<!DOCTYPE svg PUBLIC "-//W3C//DTD SVG 1.1//EN" "http://www.w3.org/Graphics/SVG/1.1/DTD/svg11.dtd">
<svg version="1.1" id="Layer_1" xmlns="http://www.w3.org/2000/svg" xmlns:xlink="http://www.w3.org/1999/xlink" x="0px" y="0px"
	 width="1417.32px" height="1417.32px" viewBox="0 0 1417.32 1417.32" enable-background="new 0 0 1417.32 1417.32"
	 xml:space="preserve">
<path fill-rule="evenodd" clip-rule="evenodd" d="M1278.261,740.99c116.725,540.934-1018.148,428.521-1148.304,229.66
	C-14.528,749.938,174.438,615.931,334.1,511.33c147.475-96.614,290.365-331.608,561.393-178.625
	C1086.203,440.358,1070.779,677.444,1278.261,740.99z M461.689,460.293c47.771,85.75,312.145,207.133,153.106,331.734
	C554.938,354.459-82.46,735.832,283.064,996.17c310.326-72.443,952.833,187.297,918.643-229.662
	c-38.326-72.242-156.944-64.206-229.661-102.072C1005.738,379.316,635.879,312.543,461.689,460.293z"/>
</svg>
