<?xml version="1.0" encoding="utf-8"?>
<!-- Generator: Adobe Illustrator 15.1.0, SVG Export Plug-In . SVG Version: 6.00 Build 0)  -->
<!DOCTYPE svg PUBLIC "-//W3C//DTD SVG 1.1//EN" "http://www.w3.org/Graphics/SVG/1.1/DTD/svg11.dtd">
<svg version="1.1" id="Layer_1" xmlns="http://www.w3.org/2000/svg" xmlns:xlink="http://www.w3.org/1999/xlink" x="0px" y="0px"
	 width="1417.32px" height="1417.32px" viewBox="0 0 1417.32 1417.32" enable-background="new 0 0 1417.32 1417.32"
	 xml:space="preserve">
<path fill-rule="evenodd" clip-rule="evenodd" d="M993.422,339.4c0,166.386,0,332.786,0,499.172c-175.033,0-350.121,0-525.156,0
	C316.463,326.081,705.51,82.918,993.422,339.4z"/>
<path fill-rule="evenodd" clip-rule="evenodd" d="M310.719,851.373c280.066,0,560.186,0,840.25,0
	c-16.77,108.506,34.004,292.498-26.258,352.356c-26.258,0-52.516,0-78.773,0c-94.877,27.814-36.617-115.646-52.516-176.178
	c-166.316,0-332.582,0-498.898,0c-74.336-4.817,21.822,180.995-52.516,176.178c-26.258,0-52.516,0-78.773,0
	C251.152,1192.03,338.209,957.671,310.719,851.373z"/>
<path fill-rule="evenodd" clip-rule="evenodd" d="M261.501,838.572c52.516,0,105.031,0,157.547,0c0-58.727,0-117.452,0-176.179
	c-52.516,0-105.031,0-157.547,0C261.501,721.12,261.501,779.846,261.501,838.572z"/>
<path fill-rule="evenodd" clip-rule="evenodd" d="M1010.081,822.01c52.516,0,105.031,0,157.547,0c0-58.727,0-117.452,0-176.178
	c-52.516,0-105.031,0-157.547,0C1010.081,704.558,1010.081,763.283,1010.081,822.01z"/>
<path fill-rule="evenodd" clip-rule="evenodd" d="M363.234,1203.729c26.258,0,52.516,0,78.773,0
	c74.338,4.817-21.82-180.995,52.516-176.178c166.316,0,332.582,0,498.898,0c15.898,60.532-42.361,203.992,52.516,176.178
	c26.258,0,52.516,0,78.773,0c60.262-59.858,9.488-243.851,26.258-352.356c-280.064,0-560.184,0-840.25,0
	C338.209,957.671,251.152,1192.03,363.234,1203.729z"/>
</svg>
