<?xml version="1.0" encoding="utf-8"?>
<!-- Generator: Adobe Illustrator 15.1.0, SVG Export Plug-In . SVG Version: 6.00 Build 0)  -->
<!DOCTYPE svg PUBLIC "-//W3C//DTD SVG 1.1//EN" "http://www.w3.org/Graphics/SVG/1.1/DTD/svg11.dtd">
<svg version="1.1" id="Layer_1" xmlns="http://www.w3.org/2000/svg" xmlns:xlink="http://www.w3.org/1999/xlink" x="0px" y="0px"
	 width="1417.32px" height="1417.32px" viewBox="0 0 1417.32 1417.32" enable-background="new 0 0 1417.32 1417.32"
	 xml:space="preserve">
<path fill-rule="evenodd" clip-rule="evenodd" fill="#FFFFFF" d="M1811.788,267.137"/>
<path fill-rule="evenodd" clip-rule="evenodd" fill="#FFFFFF" d="M-121.096,46"/>
<path fill-rule="evenodd" clip-rule="evenodd" d="M1232.846,205.4c134.351,332.888-196.87,415.94-423.046,479.453
	c34.759,183.636,437.312,352.374,338.437,451.25c-79.129,79.127-288.394-246.696-394.844-338.438
	c-194.832,53.253-279.8,354.468-451.25,338.438C280.302,893.843,713.154,822.633,809.8,572.04
	c21.042-54.602-25.834-152.417,0-197.422C888.707,237.115,1054.759,117.004,1232.846,205.4z"/>
<path fill-rule="evenodd" clip-rule="evenodd" d="M245.736,205.4c166.796,96.452,298.392,228.062,394.844,394.844
	c-152.804,231.174-293.819-83.315-423.046-197.422C201.173,311.259,236.758,271.611,245.736,205.4z"/>
</svg>
