<?xml version="1.0" encoding="utf-8"?>
<!-- Generator: Adobe Illustrator 15.1.0, SVG Export Plug-In . SVG Version: 6.00 Build 0)  -->
<!DOCTYPE svg PUBLIC "-//W3C//DTD SVG 1.1//EN" "http://www.w3.org/Graphics/SVG/1.1/DTD/svg11.dtd">
<svg version="1.1" id="Layer_1" xmlns="http://www.w3.org/2000/svg" xmlns:xlink="http://www.w3.org/1999/xlink" x="0px" y="0px"
	 width="1417.32px" height="1417.32px" viewBox="0 0 1417.32 1417.32" enable-background="new 0 0 1417.32 1417.32"
	 xml:space="preserve">
<path fill-rule="evenodd" clip-rule="evenodd" d="M850.188,284.786c35.707,75.933,132.191,190.574,75.885,278.241
	c82.281-36.707,253.514-87.642,354.125-25.294c-7.076,144.703-93.002,210.534-177.062,278.242
	c84.061,67.707,169.986,133.537,177.062,278.24c-82.775,51.405-272.004,29.52-328.83-25.294
	c-13.549,49.749-26.914,238.94-126.475,278.241c-139.219,5.064-187.363-189.932-151.767-278.241
	c-82.282,36.707-253.515,87.642-354.125,25.294c7.077-144.703,93.002-210.533,177.063-278.24
	C412.002,748.267,326.077,682.436,319,537.733c82.776-51.405,272.004-29.519,328.831,25.294
	C673.458,507.028,657.958,251.982,850.188,284.786z M597.242,917.152c192.452,303.389,606.936-111.084,303.536-303.536
	c-60.482,15.414-183.521-31.767-202.357,25.295C601.824,668.801,583.507,776.945,597.242,917.152z"/>
</svg>
