<?xml version="1.0" encoding="utf-8"?>
<!-- Generator: Adobe Illustrator 15.1.0, SVG Export Plug-In . SVG Version: 6.00 Build 0)  -->
<!DOCTYPE svg PUBLIC "-//W3C//DTD SVG 1.1//EN" "http://www.w3.org/Graphics/SVG/1.1/DTD/svg11.dtd">
<svg version="1.1" id="Layer_1" xmlns="http://www.w3.org/2000/svg" xmlns:xlink="http://www.w3.org/1999/xlink" x="0px" y="0px"
	 width="1417.32px" height="1417.32px" viewBox="0 0 1417.32 1417.32" enable-background="new 0 0 1417.32 1417.32"
	 xml:space="preserve">
<path fill-rule="evenodd" clip-rule="evenodd" fill="#FFFFFF" d="M1811.788,267.137"/>
<path fill-rule="evenodd" clip-rule="evenodd" fill="#FFFFFF" d="M-121.096,46"/>
<path fill-rule="evenodd" clip-rule="evenodd" d="M530.138,196c73.482,116.303,132.394-40.606,214.682,26.835
	c-12.187,113.041-126.917,123.549-161.012,214.681c127.311,167.864,302.053,288.335,429.363,456.198
	c125.396-8.766,116.119-152.245,241.516-161.011c31.711,161.784-57.836,273.515-26.834,429.362
	c-155.85-31.002-267.566,58.559-429.363,26.836c12.186-113.041,126.916-123.55,161.011-214.682
	c-127.31-167.864-302.053-288.334-429.363-456.198c-125.397,8.766-116.094,152.245-241.517,161.011
	c-31.709-161.784,57.837-273.515,26.835-429.363C368.917,210.519,494.472,342.925,530.138,196z"/>
</svg>
