<?xml version="1.0" encoding="utf-8"?>
<!-- Generator: Adobe Illustrator 15.1.0, SVG Export Plug-In . SVG Version: 6.00 Build 0)  -->
<!DOCTYPE svg PUBLIC "-//W3C//DTD SVG 1.1//EN" "http://www.w3.org/Graphics/SVG/1.1/DTD/svg11.dtd">
<svg version="1.1" id="Layer_1" xmlns="http://www.w3.org/2000/svg" xmlns:xlink="http://www.w3.org/1999/xlink" x="0px" y="0px"
	 width="1417.32px" height="1417.32px" viewBox="0 0 1417.32 1417.32" enable-background="new 0 0 1417.32 1417.32"
	 xml:space="preserve">
<path fill-rule="evenodd" clip-rule="evenodd" d="M690.371,985.38c-98.137,72.864-220.988,121.015-313.5,199.501
	c59.812-212.666,69.387-522.131-199.5-598.502c60.09-72.92,210.242-55.748,342-57c62.957-98.554,118.758-204.232,142.5-342.001
	c106.598,64.403,125.887,216.116,171,342.001c141.723-8.739,261.484,4.509,370.5,28.5c-52.352,118.648-200.195,141.805-256.5,256.5
	c25.941,116.562,28.168,256.835,85.5,342.002C946.094,1184.713,794.66,1033.779,690.371,985.38z"/>
<path fill-rule="evenodd" clip-rule="evenodd" d="M1032.371,1156.381c-57.332-85.167-59.559-225.44-85.5-342.002
	c56.305-114.695,204.148-137.852,256.5-256.5c-109.016-23.991-228.777-37.239-370.5-28.5
	c-45.113-125.885-64.402-277.598-171-342.001c-23.742,137.769-79.543,243.447-142.5,342.001c-131.758,1.252-281.91-15.92-342,57
	c268.887,76.371,259.312,385.836,199.5,598.502c92.512-78.486,215.363-126.637,313.5-199.501
	C794.66,1033.779,946.094,1184.713,1032.371,1156.381z"/>
</svg>
