<?xml version="1.0" encoding="utf-8"?>
<!-- Generator: Adobe Illustrator 15.1.0, SVG Export Plug-In . SVG Version: 6.00 Build 0)  -->
<!DOCTYPE svg PUBLIC "-//W3C//DTD SVG 1.1//EN" "http://www.w3.org/Graphics/SVG/1.1/DTD/svg11.dtd">
<svg version="1.1" id="Layer_1" xmlns="http://www.w3.org/2000/svg" xmlns:xlink="http://www.w3.org/1999/xlink" x="0px" y="0px"
	 width="1417.32px" height="1417.32px" viewBox="0 0 1417.32 1417.32" enable-background="new 0 0 1417.32 1417.32"
	 xml:space="preserve">
<path fill-rule="evenodd" clip-rule="evenodd" d="M1016.895,673.984c3.334,58.807-70.393,12.291-99.232,27.125
	c0,144.658,0,289.342,0,434c-66.168,0-132.299,0-198.467,0c0-99.467,0-198.908,0-298.375
	c-14.77-61.164-111.328-10.596-158.773-27.125c0,108.5,0,217,0,325.5c-66.168,0-132.299,0-198.467,0c0-135.625,0-271.25,0-406.875
	c3.334-58.806-70.395-12.291-99.234-27.125c111.076-164.657,250.139-291.038,357.24-461.125
	C781.178,345.12,865.312,555.657,1016.895,673.984z"/>
<path fill-rule="evenodd" clip-rule="evenodd" d="M619.961,239.984c-107.102,170.087-246.164,296.468-357.24,461.125
	c28.84,14.834,102.568-31.681,99.234,27.125c0,135.625,0,271.25,0,406.875c66.168,0,132.299,0,198.467,0c0-108.5,0-217,0-325.5
	c47.445,16.529,144.004-34.039,158.773,27.125c0,99.467,0,198.908,0,298.375c66.168,0,132.299,0,198.467,0
	c0-144.658,0-289.342,0-434c28.84-14.834,102.566,31.682,99.232-27.125C865.312,555.657,781.178,345.12,619.961,239.984z"/>
</svg>
