<?xml version="1.0" encoding="utf-8"?>
<!-- Generator: Adobe Illustrator 15.1.0, SVG Export Plug-In . SVG Version: 6.00 Build 0)  -->
<!DOCTYPE svg PUBLIC "-//W3C//DTD SVG 1.1//EN" "http://www.w3.org/Graphics/SVG/1.1/DTD/svg11.dtd">
<svg version="1.1" id="Layer_1" xmlns="http://www.w3.org/2000/svg" xmlns:xlink="http://www.w3.org/1999/xlink" x="0px" y="0px"
	 width="1417.32px" height="1417.32px" viewBox="0 0 1417.32 1417.32" enable-background="new 0 0 1417.32 1417.32"
	 xml:space="preserve">
<path fill-rule="evenodd" clip-rule="evenodd" d="M1252.894,405.738c-240.288,113.164-800.801,58.284-1088.468,28.646
	C404.093,36.097,981.363,48.362,1252.894,405.738z"/>
<path fill-rule="evenodd" clip-rule="evenodd" d="M278.999,577.602c57.289,0,114.576,0,171.868,0c0,133.667,0,267.348,0,401.013
	c-57.292,0-114.579,0-171.868,0C278.999,844.95,278.999,711.27,278.999,577.602z"/>
<path fill-rule="evenodd" clip-rule="evenodd" d="M622.725,577.602c57.286,0,114.578,0,171.865,0c0,133.667,0,267.348,0,401.013
	c-57.287,0-114.579,0-171.865,0C622.725,844.95,622.725,711.27,622.725,577.602z"/>
<path fill-rule="evenodd" clip-rule="evenodd" d="M966.452,577.602c57.287,0,114.573,0,171.863,0c0,133.667,0,267.348,0,401.013
	c-57.29,0-114.576,0-171.863,0C966.452,844.95,966.452,711.27,966.452,577.602z"/>
<path fill-rule="evenodd" clip-rule="evenodd" d="M164.426,1093.192c117.985,0,385.909,0,601.521,0
	c169.178,0,453.182-66.841,486.947,85.93c-62.492,155.781-320.454,85.932-515.591,85.932c-194.578,0-412.955,0-572.877,0
	C164.426,1207.768,164.426,1150.479,164.426,1093.192z"/>
<path fill-rule="evenodd" clip-rule="evenodd" d="M164.426,434.384c287.667,29.638,848.18,84.518,1088.468-28.646
	C981.363,48.362,404.093,36.097,164.426,434.384z"/>
<path fill-rule="evenodd" clip-rule="evenodd" d="M278.999,978.615c57.289,0,114.576,0,171.868,0c0-133.665,0-267.346,0-401.013
	c-57.292,0-114.579,0-171.868,0C278.999,711.27,278.999,844.95,278.999,978.615z"/>
<path fill-rule="evenodd" clip-rule="evenodd" d="M622.725,978.615c57.286,0,114.578,0,171.865,0c0-133.665,0-267.346,0-401.013
	c-57.287,0-114.579,0-171.865,0C622.725,711.27,622.725,844.95,622.725,978.615z"/>
<path fill-rule="evenodd" clip-rule="evenodd" d="M966.452,978.615c57.287,0,114.573,0,171.863,0c0-133.665,0-267.346,0-401.013
	c-57.29,0-114.576,0-171.863,0C966.452,711.27,966.452,844.95,966.452,978.615z"/>
</svg>
