<?xml version="1.0" encoding="utf-8"?>
<!-- Generator: Adobe Illustrator 15.1.0, SVG Export Plug-In . SVG Version: 6.00 Build 0)  -->
<!DOCTYPE svg PUBLIC "-//W3C//DTD SVG 1.1//EN" "http://www.w3.org/Graphics/SVG/1.1/DTD/svg11.dtd">
<svg version="1.1" id="Layer_1" xmlns="http://www.w3.org/2000/svg" xmlns:xlink="http://www.w3.org/1999/xlink" x="0px" y="0px"
	 width="1417.32px" height="1417.32px" viewBox="0 0 1417.32 1417.32" enable-background="new 0 0 1417.32 1417.32"
	 xml:space="preserve">
<path fill-rule="evenodd" clip-rule="evenodd" d="M1101.281,353.236c-97.729,179.028-605.034,32.202-853.051,79.973
	c0-17.78,0-35.536,0-53.316C419.072,275.059,886.47,325.328,1101.281,353.236z"/>
<path fill-rule="evenodd" clip-rule="evenodd" d="M248.23,486.525c284.346,0,568.705,0,853.051,0
	c51.714,244.371,49.476,487.389-53.317,693.103c-113.789-10.622-25.406-223.391-53.314-319.894c-71.084,0-142.18,0-213.263,0
	c0,106.633,0,213.262,0,319.894c-177.714,0-355.442,0-533.156,0C257.277,874.99,167.203,754.509,248.23,486.525z M354.862,1072.996
	c106.631,0,213.262,0,319.895,0c0-71.097,0-142.166,0-213.262c-106.633,0-213.264,0-319.895,0
	C354.862,930.83,354.862,1001.899,354.862,1072.996z"/>
<path fill-rule="evenodd" clip-rule="evenodd" d="M248.23,379.894c0,17.78,0,35.536,0,53.316
	c248.017-47.771,755.322,99.055,853.051-79.973C886.47,325.328,419.072,275.059,248.23,379.894z"/>
</svg>
