<?xml version="1.0" encoding="utf-8"?>
<!-- Generator: Adobe Illustrator 15.1.0, SVG Export Plug-In . SVG Version: 6.00 Build 0)  -->
<!DOCTYPE svg PUBLIC "-//W3C//DTD SVG 1.1//EN" "http://www.w3.org/Graphics/SVG/1.1/DTD/svg11.dtd">
<svg version="1.1" id="Layer_1" xmlns="http://www.w3.org/2000/svg" xmlns:xlink="http://www.w3.org/1999/xlink" x="0px" y="0px"
	 width="1417.32px" height="1417.32px" viewBox="0 0 1417.32 1417.32" enable-background="new 0 0 1417.32 1417.32"
	 xml:space="preserve">
<path fill-rule="evenodd" clip-rule="evenodd" d="M923.091,1000.757c-114.523,0-229.028,0-343.551,0
	c-102.943-269.1-356.9-559.186-114.505-801.607c288.738-288.738,757.992,17.172,658.457,429.431
	C1090.44,765.501,938.241,824.283,923.091,1000.757z M1037.614,542.692c49.931-451.2-655.782-489.741-572.579,28.626
	c21.068,131.294,164.327,169.608,229.028,314.925c47.746,0,95.437,0,143.131,0C901.401,664.326,1018.711,713.603,1037.614,542.692z"
	/>
<path fill-rule="evenodd" clip-rule="evenodd" fill="#C9C9C9" d="M837.194,886.243c-47.694,0-95.386,0-143.131,0
	c-64.701-145.316-207.96-183.631-229.028-314.925c-83.203-518.368,622.51-479.826,572.579-28.626
	C1018.711,713.603,901.401,664.326,837.194,886.243z"/>
<path fill-rule="evenodd" clip-rule="evenodd" d="M579.54,1115.271c114.523,0,229.027,0,343.551,0
	C944.122,1279.17,558.525,1279.17,579.54,1115.271z"/>
<path fill-rule="evenodd" clip-rule="evenodd" d="M923.091,1115.271c-114.523,0-229.028,0-343.551,0
	C558.525,1279.17,944.122,1279.17,923.091,1115.271z"/>
</svg>
