<?xml version="1.0" encoding="utf-8"?>
<!-- Generator: Adobe Illustrator 15.1.0, SVG Export Plug-In . SVG Version: 6.00 Build 0)  -->
<!DOCTYPE svg PUBLIC "-//W3C//DTD SVG 1.1//EN" "http://www.w3.org/Graphics/SVG/1.1/DTD/svg11.dtd">
<svg version="1.1" id="Layer_1" xmlns="http://www.w3.org/2000/svg" xmlns:xlink="http://www.w3.org/1999/xlink" x="0px" y="0px"
	 width="1417.32px" height="1417.32px" viewBox="0 0 1417.32 1417.32" enable-background="new 0 0 1417.32 1417.32"
	 xml:space="preserve">
<path fill-rule="evenodd" clip-rule="evenodd" d="M487.393,176c151.287,0,302.597,0,453.884,0
	c-39.473,135.704-114.404,235.97-167.221,358.33c10.287,53.423,117.74,9.681,167.221,23.889
	c-78.875,191.856-203.684,337.799-286.664,525.549c-55.126-72.271-8.422-246.398-23.889-358.329
	c-2.986-52.77-101.34-10.147-143.332-23.889C487.393,526.375,487.393,351.176,487.393,176z"/>
<path fill-rule="evenodd" clip-rule="evenodd" d="M487.393,701.55c41.992,13.741,140.345-28.881,143.332,23.889
	c15.467,111.931-31.237,286.058,23.889,358.329c82.98-187.75,207.789-333.693,286.664-525.549
	c-49.48-14.208-156.934,29.534-167.221-23.889C826.873,411.97,901.805,311.704,941.277,176c-151.287,0-302.598,0-453.884,0
	C487.393,351.176,487.393,526.375,487.393,701.55z"/>
</svg>
