<?xml version="1.0" encoding="utf-8"?>
<!-- Generator: Adobe Illustrator 15.1.0, SVG Export Plug-In . SVG Version: 6.00 Build 0)  -->
<!DOCTYPE svg PUBLIC "-//W3C//DTD SVG 1.1//EN" "http://www.w3.org/Graphics/SVG/1.1/DTD/svg11.dtd">
<svg version="1.1" id="Layer_1" xmlns="http://www.w3.org/2000/svg" xmlns:xlink="http://www.w3.org/1999/xlink" x="0px" y="0px"
	 width="1417.32px" height="1417.32px" viewBox="0 0 1417.32 1417.32" enable-background="new 0 0 1417.32 1417.32"
	 xml:space="preserve">
<path fill-rule="evenodd" clip-rule="evenodd" d="M836.4,959.035c-20.39-60.436-31.732-129.918-24.25-218.25
	c-93.542,28.086-267.271,185.119-363.75,291c-270.113,59.275-373.151-148.235-291-363.75c136.027-138.81,461.839-87.824,727.499-97
	c46.843-64.237-117.65-123.938-242.5-97c0-16.163,0-32.337,0-48.5c257.277-173.503,370.262,209.559,582,242.5
	C1380.558,956.477,1016.76,1152.04,836.4,959.035z M496.901,862.035c-42.627-13.949-142.469,29.306-145.5-24.25
	c0-24.25,0-48.5,0-72.75c42.627-13.949,142.469,29.306,145.5-24.25C118.918,415.66,189.419,1240.787,496.901,862.035z
	 M909.15,934.785C1551.823,1019.21,793.75,306.76,909.15,934.785L909.15,934.785z"/>
</svg>
