<?xml version="1.0" encoding="utf-8"?>
<!-- Generator: Adobe Illustrator 15.1.0, SVG Export Plug-In . SVG Version: 6.00 Build 0)  -->
<!DOCTYPE svg PUBLIC "-//W3C//DTD SVG 1.1//EN" "http://www.w3.org/Graphics/SVG/1.1/DTD/svg11.dtd">
<svg version="1.1" id="Layer_1" xmlns="http://www.w3.org/2000/svg" xmlns:xlink="http://www.w3.org/1999/xlink" x="0px" y="0px"
	 width="1417.32px" height="1417.32px" viewBox="0 0 1417.32 1417.32" enable-background="new 0 0 1417.32 1417.32"
	 xml:space="preserve">
<path fill-rule="evenodd" clip-rule="evenodd" d="M781.531,343.855C969.541,491.764,1070.977,726.211,1235,898.094
	c-302.41,58.701-713.711,8.463-1058.092,25.193c91.863-134.869,168.523-284.956,302.311-377.891
	c47.188,112.358,123.799,195.316,201.543,277.119c20.271-13.334,40.889-26.275,75.576-25.192
	c6.84-132.791-111.594-140.331-125.963-251.927C698.303,495.749,750.877,430.775,781.531,343.855z"/>
<path fill-rule="evenodd" clip-rule="evenodd" d="M630.375,545.396c14.369,111.596,132.803,119.136,125.963,251.927
	c-34.688-1.083-55.305,11.858-75.576,25.192c-77.744-81.803-154.355-164.761-201.543-277.119
	c-133.787,92.935-210.447,243.021-302.311,377.891C521.289,906.557,932.59,956.795,1235,898.094
	c-164.023-171.883-265.459-406.33-453.469-554.239C750.877,430.775,698.303,495.749,630.375,545.396z"/>
</svg>
