<?xml version="1.0" encoding="utf-8"?>
<!-- Generator: Adobe Illustrator 15.1.0, SVG Export Plug-In . SVG Version: 6.00 Build 0)  -->
<!DOCTYPE svg PUBLIC "-//W3C//DTD SVG 1.1//EN" "http://www.w3.org/Graphics/SVG/1.1/DTD/svg11.dtd">
<svg version="1.1" id="Layer_1" xmlns="http://www.w3.org/2000/svg" xmlns:xlink="http://www.w3.org/1999/xlink" x="0px" y="0px"
	 width="1417.32px" height="1417.32px" viewBox="0 0 1417.32 1417.32" enable-background="new 0 0 1417.32 1417.32"
	 xml:space="preserve">
<path fill-rule="evenodd" clip-rule="evenodd" d="M385.727,473.343c46.196,0,92.393,0,138.589,0
	c77.279-41.876-100.377-142.908-23.098-184.785c80.46,19.624,86.325,113.855,115.491,184.785c46.196,0,92.393,0,138.588,0
	c77.279-41.876-100.377-142.908-23.098-184.785c80.46,19.624,86.324,113.855,115.49,184.785c46.196,0,92.393,0,138.589,0
	c61.603-48.283-57.542-110.302-46.196-184.785c53.889,0,107.799,0,161.688,0c-24.633,244.854,61.309,600.27-69.295,739.14
	c-261.771,0-523.565,0-785.336,0C65.714,869.947,214.95-64.287,385.727,473.343z"/>
<path fill-rule="evenodd" clip-rule="evenodd" d="M247.138,1027.698c261.771,0,523.565,0,785.336,0
	c130.604-138.87,44.662-494.287,69.295-739.14c-53.889,0-107.799,0-161.688,0c-11.346,74.482,107.799,136.502,46.196,184.785
	c-46.196,0-92.393,0-138.589,0c-29.166-70.93-35.03-165.161-115.49-184.785c-77.28,41.876,100.377,142.908,23.098,184.785
	c-46.196,0-92.392,0-138.588,0c-29.166-70.93-35.031-165.161-115.491-184.785c-77.279,41.876,100.377,142.908,23.098,184.785
	c-46.196,0-92.393,0-138.589,0C214.95-64.287,65.714,869.947,247.138,1027.698z"/>
</svg>
