<?xml version="1.0" encoding="utf-8"?>
<!-- Generator: Adobe Illustrator 15.1.0, SVG Export Plug-In . SVG Version: 6.00 Build 0)  -->
<!DOCTYPE svg PUBLIC "-//W3C//DTD SVG 1.1//EN" "http://www.w3.org/Graphics/SVG/1.1/DTD/svg11.dtd">
<svg version="1.1" id="Layer_1" xmlns="http://www.w3.org/2000/svg" xmlns:xlink="http://www.w3.org/1999/xlink" x="0px" y="0px"
	 width="1417.32px" height="1417.32px" viewBox="0 0 1417.32 1417.32" enable-background="new 0 0 1417.32 1417.32"
	 xml:space="preserve">
<path fill-rule="evenodd" clip-rule="evenodd" d="M683.8,137.235c140.612,20.823,364.96-42.105,451.974,32.283
	c0,32.284,0,64.568,0,96.852c19.704,127.322-177.247,37.974-258.271,64.567c-23.583,428.409,137.081,1041.031-419.691,936.234
	c-85.533-86.652-164.981-179.375-129.135-387.407c89.316-72.103,154.83-167.993,355.123-129.136
	C683.8,546.16,683.8,341.705,683.8,137.235z"/>
<path fill-rule="evenodd" clip-rule="evenodd" d="M683.8,750.629c-200.293-38.857-265.807,57.033-355.123,129.136
	c-35.847,208.032,43.602,300.755,129.135,387.407c556.772,104.797,396.108-507.825,419.691-936.234
	c81.023-26.593,277.975,62.755,258.271-64.567c0-32.284,0-64.568,0-96.852c-87.014-74.388-311.361-11.46-451.974-32.283
	C683.8,341.705,683.8,546.16,683.8,750.629z"/>
</svg>
