<?xml version="1.0" encoding="utf-8"?>
<!-- Generator: Adobe Illustrator 15.1.0, SVG Export Plug-In . SVG Version: 6.00 Build 0)  -->
<!DOCTYPE svg PUBLIC "-//W3C//DTD SVG 1.1//EN" "http://www.w3.org/Graphics/SVG/1.1/DTD/svg11.dtd">
<svg version="1.1" id="Layer_1" xmlns="http://www.w3.org/2000/svg" xmlns:xlink="http://www.w3.org/1999/xlink" x="0px" y="0px"
	 width="1417.32px" height="1417.32px" viewBox="0 0 1417.32 1417.32" enable-background="new 0 0 1417.32 1417.32"
	 xml:space="preserve">
<path fill-rule="evenodd" clip-rule="evenodd" d="M838.393,857.138c0,49.753,0,99.507,0,149.261
	c0.4,74.218,184.354-35.08,149.261,74.631c-167.712,114.229-545.906,17.978-796.059,49.754
	c46.899-206.692-134.502-357.787,0-497.537c49.753,0,99.507,0,149.261,0c115.833,98.244,1.968,244.444,0,373.152
	c83.485,57.479,273.22,8.722,398.029,24.877c0-58.038,0-116.101,0-174.138c-465.408-147.221-280.326-810.6,174.139-696.552
	C1195.766,231.536,1202.52,796.281,838.393,857.138z"/>
<path fill-rule="evenodd" clip-rule="evenodd" d="M216.471,459.107c33.174,0,66.334,0,99.508,0
	c7.932,57.686-3.996,95.512-24.877,124.385C213.374,594.874,211.576,530.337,216.471,459.107z"/>
<path fill-rule="evenodd" clip-rule="evenodd" d="M291.102,583.492c20.881-28.873,32.809-66.699,24.877-124.385
	c-33.173,0-66.334,0-99.508,0C211.576,530.337,213.374,594.874,291.102,583.492z"/>
</svg>
