<?xml version="1.0" encoding="utf-8"?>
<!-- Generator: Adobe Illustrator 15.1.0, SVG Export Plug-In . SVG Version: 6.00 Build 0)  -->
<!DOCTYPE svg PUBLIC "-//W3C//DTD SVG 1.1//EN" "http://www.w3.org/Graphics/SVG/1.1/DTD/svg11.dtd">
<svg version="1.1" id="Layer_1" xmlns="http://www.w3.org/2000/svg" xmlns:xlink="http://www.w3.org/1999/xlink" x="0px" y="0px"
	 width="1417.32px" height="1417.32px" viewBox="0 0 1417.32 1417.32" enable-background="new 0 0 1417.32 1417.32"
	 xml:space="preserve">
<path fill-rule="evenodd" clip-rule="evenodd" d="M1131.619,345.48c-75.12,220.113-292.287,298.167-406.938,478.75
	C418.777,768.758,1020.148,231.766,1131.619,345.48z"/>
<path fill-rule="evenodd" clip-rule="evenodd" d="M269.869,1063.605c114.896-60.639,52.176-298.914,287.25-239.375
	C734.23,1032.516,418.485,1229.766,269.869,1063.605z"/>
<path fill-rule="evenodd" clip-rule="evenodd" d="M724.682,824.23c114.65-180.583,331.817-258.637,406.938-478.75
	C1020.148,231.766,418.777,768.758,724.682,824.23z"/>
<path fill-rule="evenodd" clip-rule="evenodd" d="M557.119,824.23c-235.074-59.539-172.354,178.736-287.25,239.375
	C418.485,1229.766,734.23,1032.516,557.119,824.23z"/>
</svg>
