<?xml version="1.0" encoding="utf-8"?>
<!-- Generator: Adobe Illustrator 15.1.0, SVG Export Plug-In . SVG Version: 6.00 Build 0)  -->
<!DOCTYPE svg PUBLIC "-//W3C//DTD SVG 1.1//EN" "http://www.w3.org/Graphics/SVG/1.1/DTD/svg11.dtd">
<svg version="1.1" id="Layer_1" xmlns="http://www.w3.org/2000/svg" xmlns:xlink="http://www.w3.org/1999/xlink" x="0px" y="0px"
	 width="1417.32px" height="1417.32px" viewBox="0 0 1417.32 1417.32" enable-background="new 0 0 1417.32 1417.32"
	 xml:space="preserve">
<path fill-rule="evenodd" clip-rule="evenodd" d="M624.682,294.157c33.791,160.887-67.164,235.752-178.107,178.106
	C340.676,346.088,498.506,188.257,624.682,294.157z"/>
<path fill-rule="evenodd" clip-rule="evenodd" d="M930.006,294.157c33.793,160.887-67.162,235.752-178.105,178.106
	C646,346.088,803.83,188.257,930.006,294.157z"/>
<path fill-rule="evenodd" clip-rule="evenodd" d="M395.688,497.707c0,50.887,0,101.775,0,152.662
	c-37.023,37.396-166.527,37.396-203.551,0C147.561,463.02,302.385,407.237,395.688,497.707z"/>
<path fill-rule="evenodd" clip-rule="evenodd" d="M1159,497.707c0,50.887,0,101.775,0,152.662
	c-37.023,37.396-166.527,37.396-203.551,0C910.873,463.02,1065.697,407.237,1159,497.707z"/>
<path fill-rule="evenodd" clip-rule="evenodd" d="M1082.668,1082.913c-73.002,179.896-651.301,122.05-788.756,50.888
	c1.119-213.315,216.172-515.037,407.1-483.432C875.441,679.242,982.061,894.346,1082.668,1082.913z"/>
<path fill-rule="evenodd" clip-rule="evenodd" d="M446.574,472.263c110.943,57.646,211.898-17.219,178.107-178.106
	C498.506,188.257,340.676,346.088,446.574,472.263z"/>
<path fill-rule="evenodd" clip-rule="evenodd" d="M751.9,472.263c110.943,57.646,211.898-17.219,178.105-178.106
	C803.83,188.257,646,346.088,751.9,472.263z"/>
<path fill-rule="evenodd" clip-rule="evenodd" d="M192.137,650.369c37.023,37.396,166.527,37.396,203.551,0
	c0-50.887,0-101.775,0-152.662C302.385,407.237,147.561,463.02,192.137,650.369z"/>
<path fill-rule="evenodd" clip-rule="evenodd" d="M955.449,650.369c37.023,37.396,166.527,37.396,203.551,0
	c0-50.887,0-101.775,0-152.662C1065.697,407.237,910.873,463.02,955.449,650.369z"/>
<path fill-rule="evenodd" clip-rule="evenodd" d="M701.012,650.369c-190.928-31.605-405.98,270.116-407.1,483.432
	c137.455,71.162,715.754,129.008,788.756-50.888C982.061,894.346,875.441,679.242,701.012,650.369z"/>
</svg>
