<?xml version="1.0" encoding="utf-8"?>
<!-- Generator: Adobe Illustrator 15.1.0, SVG Export Plug-In . SVG Version: 6.00 Build 0)  -->
<!DOCTYPE svg PUBLIC "-//W3C//DTD SVG 1.1//EN" "http://www.w3.org/Graphics/SVG/1.1/DTD/svg11.dtd">
<svg version="1.1" id="Layer_1" xmlns="http://www.w3.org/2000/svg" xmlns:xlink="http://www.w3.org/1999/xlink" x="0px" y="0px"
	 width="1417.32px" height="1417.32px" viewBox="0 0 1417.32 1417.32" enable-background="new 0 0 1417.32 1417.32"
	 xml:space="preserve">
<path fill-rule="evenodd" clip-rule="evenodd" d="M730.898,331.598c104.814-6.866,195.697,0.221,248.656,45.21
	c19.008,56.336,29.58,121.104,22.605,203.445c51.656,46.303,157.176,38.742,180.84,113.025
	c-4.26,101.237-80.354,130.619-180.84,135.63c4.438,87.33,0.795,166.58-22.605,226.051c-51.348,39.073-126.293,54.548-226.051,45.21
	c60.023-262.606-331.283-262.606-271.26,0c-192.65,26.888-275.543-56.005-248.656-248.655c262.607,60.022,262.607-331.283,0-271.261
	c-9.338-99.758,6.137-174.703,45.211-226.051c56.336-19.007,121.104-29.592,203.445-22.604
	C494.584,146.762,738.449,81.904,730.898,331.598z"/>
<path fill-rule="evenodd" clip-rule="evenodd" d="M482.244,331.598c-82.342-6.987-147.109,3.598-203.445,22.604
	c-39.074,51.348-54.549,126.293-45.211,226.051c262.607-60.022,262.607,331.283,0,271.261
	c-26.887,192.65,56.006,275.543,248.656,248.655c-60.023-262.606,331.283-262.606,271.26,0
	c99.758,9.338,174.703-6.137,226.051-45.21c23.4-59.471,27.043-138.721,22.605-226.051c100.486-5.011,176.58-34.393,180.84-135.63
	c-23.664-74.283-129.184-66.723-180.84-113.025c6.975-82.341-3.598-147.109-22.605-203.445
	c-52.959-44.989-143.842-52.076-248.656-45.21C738.449,81.904,494.584,146.762,482.244,331.598z"/>
</svg>
