<?xml version="1.0" encoding="utf-8"?>
<!-- Generator: Adobe Illustrator 15.1.0, SVG Export Plug-In . SVG Version: 6.00 Build 0)  -->
<!DOCTYPE svg PUBLIC "-//W3C//DTD SVG 1.1//EN" "http://www.w3.org/Graphics/SVG/1.1/DTD/svg11.dtd">
<svg version="1.1" id="Layer_1" xmlns="http://www.w3.org/2000/svg" xmlns:xlink="http://www.w3.org/1999/xlink" x="0px" y="0px"
	 width="1417.32px" height="1417.32px" viewBox="0 0 1417.32 1417.32" enable-background="new 0 0 1417.32 1417.32"
	 xml:space="preserve">
<path fill-rule="evenodd" clip-rule="evenodd" d="M1374.055,1097.708c-174.404,40.301-52.837-362.578-158.018-425.916
	C915.989-152.038,125.161,337.426,78.311,1097.708C-157.018-140.114,1525.963-251.539,1374.055,1097.708z"/>
<path fill-rule="evenodd" clip-rule="evenodd" d="M1121.228,1097.708c-158.636-14.856-102.094-351.901-221.225-425.916
	C588.875,466.18,423.173,824.048,331.14,1097.708C132.567,355.705,1237.271,244.603,1121.228,1097.708z"/>
<path fill-rule="evenodd" clip-rule="evenodd" d="M78.311,1097.708c46.85-760.282,837.679-1249.746,1137.727-425.916
	c105.181,63.337-16.387,466.216,158.018,425.916C1525.963-251.539-157.018-140.114,78.311,1097.708z"/>
<path fill-rule="evenodd" clip-rule="evenodd" d="M331.14,1097.708c92.033-273.66,257.735-631.528,568.863-425.916
	c119.131,74.014,62.589,411.059,221.225,425.916C1237.271,244.603,132.567,355.705,331.14,1097.708z"/>
</svg>
