<?xml version="1.0" encoding="utf-8"?>
<!-- Generator: Adobe Illustrator 15.1.0, SVG Export Plug-In . SVG Version: 6.00 Build 0)  -->
<!DOCTYPE svg PUBLIC "-//W3C//DTD SVG 1.1//EN" "http://www.w3.org/Graphics/SVG/1.1/DTD/svg11.dtd">
<svg version="1.1" id="Layer_1" xmlns="http://www.w3.org/2000/svg" xmlns:xlink="http://www.w3.org/1999/xlink" x="0px" y="0px"
	 width="1417.32px" height="1417.32px" viewBox="0 0 1417.32 1417.32" enable-background="new 0 0 1417.32 1417.32"
	 xml:space="preserve">
<path fill-rule="evenodd" clip-rule="evenodd" d="M800.046,115.923c114.618-69.073,176.904,182.849,0,177.524
	C743.133,237.873,685.65,152.565,800.046,115.923z"/>
<path fill-rule="evenodd" clip-rule="evenodd" d="M901.488,826.021C795.589,771.3,686.766,719.502,698.604,547.054
	c-44.828,22.785-74.052,61.222-126.803,76.082c121.156,225.436,403.39,289.814,532.573,507.212
	c-44.728,22.909-78.535,56.728-101.444,101.443c-229.507-167.815-338.776-455.848-583.292-608.655
	C541.09,524.802,705.29,469.201,800.046,344.169C973.904,359.772,938.91,679.01,901.488,826.021z"/>
<path fill-rule="evenodd" clip-rule="evenodd" d="M597.16,876.742c-131.161,21.002-159.42,144.907-278.967,177.524
	C275.72,942.075,502.231,710.227,597.16,876.742z"/>
<path fill-rule="evenodd" clip-rule="evenodd" d="M800.046,293.448c176.904,5.325,114.618-246.597,0-177.524
	C685.65,152.565,743.133,237.873,800.046,293.448z"/>
<path fill-rule="evenodd" clip-rule="evenodd" d="M800.046,344.169C705.29,469.201,541.09,524.802,419.637,623.136
	c244.516,152.808,353.786,440.84,583.292,608.655c22.909-44.716,56.717-78.534,101.444-101.443
	C975.191,912.95,692.957,848.571,571.801,623.136c52.75-14.859,81.975-53.297,126.803-76.082
	C686.766,719.502,795.589,771.3,901.488,826.021C938.91,679.01,973.904,359.772,800.046,344.169z"/>
<path fill-rule="evenodd" clip-rule="evenodd" d="M318.193,1054.267c119.547-32.617,147.806-156.522,278.967-177.524
	C502.231,710.227,275.72,942.075,318.193,1054.267z"/>
</svg>
