<?xml version="1.0" encoding="utf-8"?>
<!-- Generator: Adobe Illustrator 15.1.0, SVG Export Plug-In . SVG Version: 6.00 Build 0)  -->
<!DOCTYPE svg PUBLIC "-//W3C//DTD SVG 1.1//EN" "http://www.w3.org/Graphics/SVG/1.1/DTD/svg11.dtd">
<svg version="1.1" id="Layer_1" xmlns="http://www.w3.org/2000/svg" xmlns:xlink="http://www.w3.org/1999/xlink" x="0px" y="0px"
	 width="1417.32px" height="1417.32px" viewBox="0 0 1417.32 1417.32" enable-background="new 0 0 1417.32 1417.32"
	 xml:space="preserve">
<path fill-rule="evenodd" clip-rule="evenodd" d="M707.508,110.712c77.125-3.513,150.764-4.034,187.739,26.646
	c9.991,61.785-5.012,102.301-31.291,133.224c-41.71,0-83.447,0-125.158,0C698.891,201.303,670.14,190.218,707.508,110.712z"/>
<path fill-rule="evenodd" clip-rule="evenodd" d="M1145.562,616.969c-66.217,139.199-275.679-20.895-344.184-53.29
	c-141.385,185.478,252.545,368.404,62.577,666.131c-219.941-16.965,23.65-428.719-219.025-426.322
	c-46.446,49.258-59.951,126.591-62.581,213.16c-169.494,2.238-260.154-62.685-438.051-53.29
	c21.269-138.105,187.186-49.777,312.894-53.289c91.121-100.026,65.39-299.579,125.157-426.325c-13.658-39.55-40.027,10.513-93.867,0
	C403.66,509.219,518,704.271,394.615,696.907c-126.867,10.332-34.467-166.053-62.577-239.808
	C707.294,196.229,827.106,500.567,1145.562,616.969z"/>
<path fill-rule="evenodd" clip-rule="evenodd" fill="#FFFFFF" d="M1811.788,267.137"/>
<path fill-rule="evenodd" clip-rule="evenodd" fill="#FFFFFF" d="M-121.096,46"/>
</svg>
