<?xml version="1.0" encoding="utf-8"?>
<!-- Generator: Adobe Illustrator 15.1.0, SVG Export Plug-In . SVG Version: 6.00 Build 0)  -->
<!DOCTYPE svg PUBLIC "-//W3C//DTD SVG 1.1//EN" "http://www.w3.org/Graphics/SVG/1.1/DTD/svg11.dtd">
<svg version="1.1" id="Layer_1" xmlns="http://www.w3.org/2000/svg" xmlns:xlink="http://www.w3.org/1999/xlink" x="0px" y="0px"
	 width="1417.32px" height="1417.32px" viewBox="0 0 1417.32 1417.32" enable-background="new 0 0 1417.32 1417.32"
	 xml:space="preserve">
<path fill="#FFFFFF" d="M1811.788,267.137"/>
<path fill="#FFFFFF" d="M-121.096,46"/>
<path fill="#FFFFFF" d="M667.388,277.089c36.889,0,73.726,0,110.612,0c0,36.875,0,73.738,0,110.614
	C682.781,409.172,645.917,372.31,667.388,277.089z"/>
<path d="M1247.174,536.195c-27.916,117.681,58.627,349.818-48.532,388.256c-104.718-16.611-22.322-220.337-48.531-315.458
	C879.416,791.842,503.434,852.768,228,511.929c200.29-35.759,305.73-242.661,485.32-242.661
	C909.605,269.268,1034.277,505.009,1247.174,536.195z"/>
<path d="M373.596,754.589c123.558,46.305,209.982,129.743,339.724,169.862c119.625-42.134,216.156-107.396,315.459-169.862
	c62.822,372.237-471.173,385.177-655.183,169.862C373.596,867.838,373.596,811.202,373.596,754.589z"/>
</svg>
