<?xml version="1.0" encoding="utf-8"?>
<!-- Generator: Adobe Illustrator 15.1.0, SVG Export Plug-In . SVG Version: 6.00 Build 0)  -->
<!DOCTYPE svg PUBLIC "-//W3C//DTD SVG 1.1//EN" "http://www.w3.org/Graphics/SVG/1.1/DTD/svg11.dtd">
<svg version="1.1" id="Layer_1" xmlns="http://www.w3.org/2000/svg" xmlns:xlink="http://www.w3.org/1999/xlink" x="0px" y="0px"
	 width="1417.32px" height="1417.32px" viewBox="0 0 1417.32 1417.32" enable-background="new 0 0 1417.32 1417.32"
	 xml:space="preserve">
<path fill="#FFFFFF" d="M1811.788,267.137"/>
<path fill="#FFFFFF" d="M-121.096,46"/>
<path d="M567.149,154.764c9.089,141.166-180.854,142.767-236.368,59.092C328.56,51.988,513.396,36.465,567.149,154.764z"/>
<path d="M153.506,361.586c19.707,0,39.385,0,59.091,0c132.784,83.893,23.43,409.923,59.093,590.921
	c25.563,200.964,390.675,62.354,531.828,147.729c-56.523,196.608-467.398,53.842-561.374,0
	C117.583,949.029,159.623,631.236,153.506,361.586z"/>
<path d="M921.701,686.592c-32.98,116.612-258.846-45.516-325.006-88.637c0,78.784,0,157.583,0,236.368
	c291.623-25.708,362.083,169.745,472.736,325.006c-121.936,85.306-164.178-119.063-265.915-147.729
	c-491.548,176.094-608.203-449.293-354.551-650.013C598.225,478.242,762.43,579.95,921.701,686.592z"/>
</svg>
