<?xml version="1.0" encoding="utf-8"?>
<!-- Generator: Adobe Illustrator 15.1.0, SVG Export Plug-In . SVG Version: 6.00 Build 0)  -->
<!DOCTYPE svg PUBLIC "-//W3C//DTD SVG 1.1//EN" "http://www.w3.org/Graphics/SVG/1.1/DTD/svg11.dtd">
<svg version="1.1" id="Layer_1" xmlns="http://www.w3.org/2000/svg" xmlns:xlink="http://www.w3.org/1999/xlink" x="0px" y="0px"
	 width="1417.32px" height="1417.32px" viewBox="0 0 1417.32 1417.32" enable-background="new 0 0 1417.32 1417.32"
	 xml:space="preserve">
<path fill-rule="evenodd" clip-rule="evenodd" d="M991.637,479.187c97.004,8.584,233.703-22.53,290.363,26.397
	c-20.723,225.635-73.801,418.946-158.379,580.729c-211.871,42.482-580.035,42.482-791.902,0
	c-79.836-152.374-161.861-431.809-158.383-580.729c49.957-46.839,174.34-19.23,263.969-26.397
	c134.457-76.716,146.934-275.413,290.363-343.158C857.59,208.465,896.852,371.589,991.637,479.187z M569.289,479.187
	c97.543-16.833,262.938,34.182,316.762-26.396c-79.09-52.871-79.398-184.571-184.777-211.174
	C681.578,345.115,598.312,385.02,569.289,479.187z M648.48,901.535c70.113-0.258,150.75,9.976,184.777-26.397
	c0-52.793,0-105.587,0-158.38C702.355,606.892,538.613,770.634,648.48,901.535z"/>
</svg>
