<?xml version="1.0" encoding="utf-8"?>
<!-- Generator: Adobe Illustrator 15.1.0, SVG Export Plug-In . SVG Version: 6.00 Build 0)  -->
<!DOCTYPE svg PUBLIC "-//W3C//DTD SVG 1.1//EN" "http://www.w3.org/Graphics/SVG/1.1/DTD/svg11.dtd">
<svg version="1.1" id="Layer_1" xmlns="http://www.w3.org/2000/svg" xmlns:xlink="http://www.w3.org/1999/xlink" x="0px" y="0px"
	 width="1417.32px" height="1417.32px" viewBox="0 0 1417.32 1417.32" enable-background="new 0 0 1417.32 1417.32"
	 xml:space="preserve">
<path fill-rule="evenodd" clip-rule="evenodd" d="M1233,279.778c-45.425,207.288-139.46,365.051-276.54,478.958
	c-155.366,29.55-441.548-74.205-470.12,84.522c150.126,100.618,558.86-62.263,663.696,84.522
	c-132.059,101.306-611.412,81.937-746.66,0C507.619,615.556,380.8,325.506,154.49,195.256
	c-10.154-47.929,21.553-53.157,55.31-56.348c141.052-40.391,118.176,86.2,193.577,112.695
	C672.384,268.662,1009.471,216.387,1233,279.778z"/>
<path fill-rule="evenodd" clip-rule="evenodd" d="M431.033,1096.825c7.102-65.95,121.499-16.233,138.269,0
	C642.867,1323.483,288.817,1234.201,431.033,1096.825z"/>
<path fill-rule="evenodd" clip-rule="evenodd" d="M984.113,1096.825c7.103-65.95,121.499-16.233,138.27,0
	C1195.947,1323.483,841.9,1234.201,984.113,1096.825z"/>
<path fill-rule="evenodd" clip-rule="evenodd" d="M403.376,251.604c-75.4-26.495-52.524-153.086-193.577-112.695
	c-33.757,3.191-65.464,8.419-55.31,56.348c226.31,130.25,353.129,420.3,248.887,732.525c135.248,81.937,614.601,101.306,746.66,0
	C1045.2,780.996,636.467,943.877,486.34,843.259c28.571-158.728,314.753-54.973,470.12-84.522
	c137.08-113.907,231.115-271.67,276.54-478.958C1009.471,216.387,672.384,268.662,403.376,251.604z"/>
<path fill-rule="evenodd" clip-rule="evenodd" d="M569.302,1096.825c-16.77-16.233-131.167-65.95-138.269,0
	C288.817,1234.201,642.867,1323.483,569.302,1096.825z"/>
<path fill-rule="evenodd" clip-rule="evenodd" d="M1122.383,1096.825c-16.771-16.233-131.167-65.95-138.27,0
	C841.9,1234.201,1195.947,1323.483,1122.383,1096.825z"/>
</svg>
