<?xml version="1.0" encoding="utf-8"?>
<!-- Generator: Adobe Illustrator 15.1.0, SVG Export Plug-In . SVG Version: 6.00 Build 0)  -->
<!DOCTYPE svg PUBLIC "-//W3C//DTD SVG 1.1//EN" "http://www.w3.org/Graphics/SVG/1.1/DTD/svg11.dtd">
<svg version="1.1" id="Layer_1" xmlns="http://www.w3.org/2000/svg" xmlns:xlink="http://www.w3.org/1999/xlink" x="0px" y="0px"
	 width="1417.32px" height="1417.32px" viewBox="0 0 1417.32 1417.32" enable-background="new 0 0 1417.32 1417.32"
	 xml:space="preserve">
<path fill="#FFFFFF" d="M1811.788,267.137"/>
<path fill="#FFFFFF" d="M-121.096,46"/>
<path d="M1242.557,249.676c-111.862,202.991-683.694,36.154-965.119,90.48c0-20.103,0-40.219,0-60.32
	C470.708,161.214,999.539,218.103,1242.557,249.676z"/>
<path d="M277.438,400.476c321.716,0,643.402,0,965.119,0c58.522,276.477,55.96,551.421-60.319,784.159
	c-128.74-12.018-28.746-252.735-60.32-361.92c-80.436,0-160.844,0-241.278,0c0,120.641,0,241.28,0,361.92
	c-201.076,0-402.123,0-603.2,0C287.687,839.975,185.779,703.651,277.438,400.476z M398.077,1063.995c120.64,0,241.28,0,361.919,0
	c0-80.422,0-160.858,0-241.28c-120.639,0-241.279,0-361.919,0C398.077,903.137,398.077,983.573,398.077,1063.995z"/>
</svg>
