<?xml version="1.0" encoding="utf-8"?>
<!-- Generator: Adobe Illustrator 15.1.0, SVG Export Plug-In . SVG Version: 6.00 Build 0)  -->
<!DOCTYPE svg PUBLIC "-//W3C//DTD SVG 1.1//EN" "http://www.w3.org/Graphics/SVG/1.1/DTD/svg11.dtd">
<svg version="1.1" id="Layer_1" xmlns="http://www.w3.org/2000/svg" xmlns:xlink="http://www.w3.org/1999/xlink" x="0px" y="0px"
	 width="1417.32px" height="1417.32px" viewBox="0 0 1417.32 1417.32" enable-background="new 0 0 1417.32 1417.32"
	 xml:space="preserve">
<path fill-rule="evenodd" clip-rule="evenodd" fill="#FFFFFF" d="M1811.788,267.137"/>
<path fill-rule="evenodd" clip-rule="evenodd" fill="#FFFFFF" d="M-121.096,46"/>
<path fill-rule="evenodd" clip-rule="evenodd" d="M780.439,178c32.566,0,65.121,0,97.688,0c0,56.988,0,113.965,0,170.953
	c40.914,70.642,111.795-162.153,170.953-73.266c101.516,83.7-228.322,141.284-170.953,341.906
	c203.008,39.781,235.18-220.13,341.906-195.375c72.229,90.056-77.881,120.988-97.688,195.375
	c61.293,20.117,210.293-47.473,195.375,48.844c19.58,92.846-115.479,31.052-170.953,48.843
	c-70.643,40.914,162.152,111.794,73.266,170.953c-83.699,101.503-141.285-228.323-341.906-170.953
	c-39.781,203.007,220.131,235.18,195.375,341.905c-90.055,72.229-120.988-77.88-195.375-97.687
	c-20.117,61.293,47.473,210.292-48.844,195.374c-92.846,19.581-31.051-115.479-48.844-170.952
	c-40.914-70.642-111.793,162.152-170.953,73.265C507.972,973.475,837.811,915.902,780.439,715.28
	C577.433,675.5,545.26,935.41,438.535,910.655c-72.229-90.056,77.88-120.988,97.687-195.375
	c-61.293-20.117-210.292,47.473-195.374-48.843c-19.581-92.846,115.479-31.052,170.952-48.844
	c70.643-40.914-162.152-111.794-73.265-170.953c83.699-101.503,141.284,228.323,341.905,170.953
	c39.781-203.007-220.129-235.18-195.375-341.906c90.056-72.228,120.988,77.88,195.375,97.687
	C780.439,308.254,780.439,243.121,780.439,178z"/>
</svg>
