<?xml version="1.0" encoding="utf-8"?>
<!-- Generator: Adobe Illustrator 15.1.0, SVG Export Plug-In . SVG Version: 6.00 Build 0)  -->
<!DOCTYPE svg PUBLIC "-//W3C//DTD SVG 1.1//EN" "http://www.w3.org/Graphics/SVG/1.1/DTD/svg11.dtd">
<svg version="1.1" id="Layer_1" xmlns="http://www.w3.org/2000/svg" xmlns:xlink="http://www.w3.org/1999/xlink" x="0px" y="0px"
	 width="1417.32px" height="1417.32px" viewBox="0 0 1417.32 1417.32" enable-background="new 0 0 1417.32 1417.32"
	 xml:space="preserve">
<path fill-rule="evenodd" clip-rule="evenodd" d="M637.372,148.113c32.795,0,65.58,0,98.376,0c0,40.998,0,81.972,0,122.97
	c-32.797,0-65.581,0-98.376,0C637.372,230.085,637.372,189.111,637.372,148.113z"/>
<path fill-rule="evenodd" clip-rule="evenodd" d="M317.651,271.083c67.104-17.917,49.5,48.876,98.376,49.188
	c-8.694,32.303-43.292,38.692-49.189,73.782c-36.001-21.376-77.948-36.819-73.782-98.376
	C313.977,300.192,316.258,286.094,317.651,271.083z"/>
<path fill-rule="evenodd" clip-rule="evenodd" d="M1080.062,295.677c17.916,67.104-48.875,49.5-49.188,98.376
	c-32.305-8.694-38.682-43.304-73.781-49.188C975.01,294.884,1031.104,244.448,1080.062,295.677z"/>
<path fill-rule="evenodd" clip-rule="evenodd" d="M661.966,394.053c165.299-20.079,335.067,58.122,319.719,295.126
	c-23.873,368.645-615.567,341.649-590.253-49.187C397.088,552.616,440.236,421,661.966,394.053z"/>
<path fill-rule="evenodd" clip-rule="evenodd" d="M293.056,639.992c50.941,102.458-134.053,92.347-147.563,49.187
	C94.552,586.721,279.547,596.832,293.056,639.992z"/>
<path fill-rule="evenodd" clip-rule="evenodd" d="M1227.625,639.992c50.941,102.458-134.053,92.347-147.562,49.187
	C1029.121,586.721,1214.115,596.832,1227.625,639.992z"/>
<path fill-rule="evenodd" clip-rule="evenodd" d="M342.245,935.119c32.303,8.693,38.68,43.303,73.782,49.187
	c-21.388,36.002-36.819,77.961-98.376,73.782C264.296,1006.932,320.653,978.59,342.245,935.119z"/>
<path fill-rule="evenodd" clip-rule="evenodd" d="M1006.279,935.119c36.002,21.375,77.949,36.818,73.783,98.374
	C1002.75,1097.212,918.809,983.345,1006.279,935.119z"/>
<path fill-rule="evenodd" clip-rule="evenodd" d="M637.372,1058.088c32.795,0,65.58,0,98.376,0c0,40.998,0,81.973,0,122.971
	c-32.797,0-65.581,0-98.376,0C637.372,1140.061,637.372,1099.086,637.372,1058.088z"/>
<path fill-rule="evenodd" clip-rule="evenodd" d="M637.372,271.083c32.795,0,65.58,0,98.376,0c0-40.998,0-81.972,0-122.97
	c-32.797,0-65.581,0-98.376,0C637.372,189.111,637.372,230.085,637.372,271.083z"/>
<path fill-rule="evenodd" clip-rule="evenodd" d="M293.056,295.677c-4.166,61.557,37.78,77,73.782,98.376
	c5.897-35.089,40.495-41.479,49.189-73.782c-48.876-0.312-31.271-67.105-98.376-49.188
	C316.258,286.094,313.977,300.192,293.056,295.677z"/>
<path fill-rule="evenodd" clip-rule="evenodd" d="M957.094,344.865c35.1,5.884,41.477,40.494,73.781,49.188
	c0.312-48.876,67.104-31.271,49.188-98.376C1031.104,244.448,975.01,294.884,957.094,344.865z"/>
<path fill-rule="evenodd" clip-rule="evenodd" d="M391.433,639.992c-25.314,390.836,566.38,417.832,590.253,49.187
	c15.348-237.005-154.42-315.206-319.719-295.126C440.236,421,397.088,552.616,391.433,639.992z"/>
<path fill-rule="evenodd" clip-rule="evenodd" d="M145.493,689.179c13.51,43.16,198.504,53.271,147.563-49.187
	C279.547,596.832,94.552,586.721,145.493,689.179z"/>
<path fill-rule="evenodd" clip-rule="evenodd" d="M1080.062,689.179c13.51,43.16,198.504,53.271,147.562-49.187
	C1214.115,596.832,1029.121,586.721,1080.062,689.179z"/>
<path fill-rule="evenodd" clip-rule="evenodd" d="M317.651,1058.088c61.557,4.179,76.988-37.78,98.376-73.782
	c-35.102-5.884-41.479-40.493-73.782-49.187C320.653,978.59,264.296,1006.932,317.651,1058.088z"/>
<path fill-rule="evenodd" clip-rule="evenodd" d="M1080.062,1033.493c4.166-61.556-37.781-76.999-73.783-98.374
	C918.809,983.345,1002.75,1097.212,1080.062,1033.493z"/>
<path fill-rule="evenodd" clip-rule="evenodd" d="M637.372,1181.059c32.795,0,65.58,0,98.376,0c0-40.998,0-81.973,0-122.971
	c-32.797,0-65.581,0-98.376,0C637.372,1099.086,637.372,1140.061,637.372,1181.059z"/>
</svg>
