<?xml version="1.0" encoding="utf-8"?>
<!-- Generator: Adobe Illustrator 15.1.0, SVG Export Plug-In . SVG Version: 6.00 Build 0)  -->
<!DOCTYPE svg PUBLIC "-//W3C//DTD SVG 1.1//EN" "http://www.w3.org/Graphics/SVG/1.1/DTD/svg11.dtd">
<svg version="1.1" id="Layer_1" xmlns="http://www.w3.org/2000/svg" xmlns:xlink="http://www.w3.org/1999/xlink" x="0px" y="0px"
	 width="1417.32px" height="1417.32px" viewBox="0 0 1417.32 1417.32" enable-background="new 0 0 1417.32 1417.32"
	 xml:space="preserve">
<path fill-rule="evenodd" clip-rule="evenodd" fill="#FFFFFF" d="M1811.788,267.137"/>
<path fill-rule="evenodd" clip-rule="evenodd" fill="#FFFFFF" d="M-121.096,46"/>
<path fill-rule="evenodd" clip-rule="evenodd" d="M360.621,196.403c263.324,23.192,336.785,236.269,506.934,352.649
	c-111.301,29.832-270.816-13.732-418.771,22.041c30.455-65.045,101.787-89.239,132.242-154.284
	c-47.244-62.958-98.709-121.686-220.404-110.203C360.621,269.875,360.621,233.134,360.621,196.403z"/>
<path fill-rule="evenodd" clip-rule="evenodd" d="M955.717,240.484c29.271,139.368-58.18,204.22-154.285,154.284
	C709.697,285.48,846.418,148.749,955.717,240.484z"/>
<path fill-rule="evenodd" clip-rule="evenodd" d="M1110,725.377c-262.291,75.604-590.898,32.48-881.623,22.041
	C449.191,634.632,859.568,670.642,1110,725.377z"/>
<path fill-rule="evenodd" clip-rule="evenodd" d="M1110,923.742c-262.291,75.604-590.898,32.48-881.623,22.041
	C447.447,831.265,862.904,872.332,1110,923.742z"/>
</svg>
