<?xml version="1.0" encoding="utf-8"?>
<!-- Generator: Adobe Illustrator 15.1.0, SVG Export Plug-In . SVG Version: 6.00 Build 0)  -->
<!DOCTYPE svg PUBLIC "-//W3C//DTD SVG 1.1//EN" "http://www.w3.org/Graphics/SVG/1.1/DTD/svg11.dtd">
<svg version="1.1" id="Layer_1" xmlns="http://www.w3.org/2000/svg" xmlns:xlink="http://www.w3.org/1999/xlink" x="0px" y="0px"
	 width="1417.32px" height="1417.32px" viewBox="0 0 1417.32 1417.32" enable-background="new 0 0 1417.32 1417.32"
	 xml:space="preserve">
<path fill-rule="evenodd" clip-rule="evenodd" d="M453.001,76.987C689.82,103.54,729.384,327.322,916.158,403.921
	c146.783,3.671,298.358-129.584,381.423-27.245C1099.26,605.181,660.262,593.022,344.023,703.609
	c-40.174-68.816-96.261-121.708-108.979-217.955c143.62,76.545,273.828,38.352,435.911,0
	C606.81,340.931,509.458,229.413,453.001,76.987z"/>
<path fill-rule="evenodd" clip-rule="evenodd" d="M1270.336,948.81c-237.617,125.633-707.24,19.263-1035.291,54.49
	c0-18.173,0-36.318,0-54.49C455.37,858.351,1050.011,858.351,1270.336,948.81z"/>
<path fill-rule="evenodd" clip-rule="evenodd" d="M670.956,485.654c-162.083,38.352-292.291,76.545-435.911,0
	c12.718,96.247,68.805,149.139,108.979,217.955c316.238-110.587,755.236-98.428,953.558-326.933
	c-83.064-102.34-234.64,30.916-381.423,27.245C729.384,327.322,689.82,103.54,453.001,76.987
	C509.458,229.413,606.81,340.931,670.956,485.654z"/>
<path fill-rule="evenodd" clip-rule="evenodd" d="M235.045,948.81c0,18.172,0,36.317,0,54.49
	c328.051-35.228,797.674,71.143,1035.291-54.49C1050.011,858.351,455.37,858.351,235.045,948.81z"/>
</svg>
