<?xml version="1.0" encoding="utf-8"?>
<!-- Generator: Adobe Illustrator 15.1.0, SVG Export Plug-In . SVG Version: 6.00 Build 0)  -->
<!DOCTYPE svg PUBLIC "-//W3C//DTD SVG 1.1//EN" "http://www.w3.org/Graphics/SVG/1.1/DTD/svg11.dtd">
<svg version="1.1" id="Layer_1" xmlns="http://www.w3.org/2000/svg" xmlns:xlink="http://www.w3.org/1999/xlink" x="0px" y="0px"
	 width="1417.32px" height="1417.32px" viewBox="0 0 1417.32 1417.32" enable-background="new 0 0 1417.32 1417.32"
	 xml:space="preserve">
<path fill="#FFFFFF" d="M1811.788,267.137"/>
<path fill="#FFFFFF" d="M-121.096,46"/>
<path d="M593.618,100.251c118.122,0,236.245,0,354.366,0c-51.131,169.253,134.791,101.454,206.715,147.653
	c94.113,215.697,243.008,642.55,88.592,915.448c-153.189-176.317-791.789-176.317-944.979,0
	c-154.416-272.897-5.522-699.75,88.592-915.447C458.827,201.705,644.749,269.504,593.618,100.251z M357.373,572.74
	c275.624,0,551.232,0,826.857,0c9.155-117.431-68.22-148.346-59.062-265.775C813.568,339.884,301.513,172.361,357.373,572.74z
	 M534.557,720.394c-17.908-17.015-140.067-69.11-147.653,0C235.026,864.384,613.098,957.965,534.557,720.394z M1184.23,720.394
	c-17.909-17.015-140.069-69.11-147.654,0C884.699,864.384,1262.771,957.965,1184.23,720.394z"/>
</svg>
