<?xml version="1.0" encoding="utf-8"?>
<!-- Generator: Adobe Illustrator 15.1.0, SVG Export Plug-In . SVG Version: 6.00 Build 0)  -->
<!DOCTYPE svg PUBLIC "-//W3C//DTD SVG 1.1//EN" "http://www.w3.org/Graphics/SVG/1.1/DTD/svg11.dtd">
<svg version="1.1" id="Layer_1" xmlns="http://www.w3.org/2000/svg" xmlns:xlink="http://www.w3.org/1999/xlink" x="0px" y="0px"
	 width="1417.32px" height="1417.32px" viewBox="0 0 1417.32 1417.32" enable-background="new 0 0 1417.32 1417.32"
	 xml:space="preserve">
<path fill-rule="evenodd" clip-rule="evenodd" d="M967.512,1177.75c-33.932,80.773,141.493,102.308,58.994,137.737
	c-206.478,0-412.955,0-619.433,0c-137.776-1.87,34.538-62.978,29.497-110.189c-312.396-42.989-224.625-676.658-147.484-909.062
	c221.975-102.71,603.935-102.71,825.91,0C1175.949,505.707,1304.479,1165.968,967.512,1177.75z M348.08,709.446
	c235.974,0,471.948,0,707.923,0c0-91.829,0-183.645,0-275.473c-235.975,0-471.949,0-707.923,0
	C348.08,525.802,348.08,617.617,348.08,709.446z M613.551,1095.108c78.351-0.282,168.455,10.411,206.478-27.547
	c0-55.095,0-110.189,0-165.284C673.754,787.623,490.782,958.516,613.551,1095.108z"/>
</svg>
