<?xml version="1.0" encoding="utf-8"?>
<!-- Generator: Adobe Illustrator 15.1.0, SVG Export Plug-In . SVG Version: 6.00 Build 0)  -->
<!DOCTYPE svg PUBLIC "-//W3C//DTD SVG 1.1//EN" "http://www.w3.org/Graphics/SVG/1.1/DTD/svg11.dtd">
<svg version="1.1" id="Layer_1" xmlns="http://www.w3.org/2000/svg" xmlns:xlink="http://www.w3.org/1999/xlink" x="0px" y="0px"
	 width="1417.32px" height="1417.32px" viewBox="0 0 1417.32 1417.32" enable-background="new 0 0 1417.32 1417.32"
	 xml:space="preserve">
<path fill="#FFFFFF" d="M1811.788,267.137"/>
<path fill="#FFFFFF" d="M-121.096,46"/>
<path d="M1135.428,1054.973c-34.053,86.793,141.979,109.935,59.202,148.004c-207.206,0-414.413,0-621.619,0
	c-138.263-2.009,34.66-67.672,29.603-118.402c-303.9-38.1-230.086-679.953-148.005-917.627
	c234.739-102.042,594.085-102.042,828.823,0C1348.43,379.341,1465.489,1051.764,1135.428,1054.973z M513.81,610.959
	c98.675,0,197.334,0,296.01,0c0-98.674,0-197.334,0-296.009c-98.676,0-197.335,0-296.01,0
	C513.81,413.625,513.81,512.285,513.81,610.959z M928.222,610.959c98.675,0,197.334,0,296.009,0c0-98.674,0-197.334,0-296.009
	c-98.675,0-197.334,0-296.009,0C928.222,413.625,928.222,512.285,928.222,610.959z M691.415,818.165
	c-17.952-17.055-140.402-69.275-148.005,0C391.171,962.498,770.145,1056.302,691.415,818.165z M1224.23,818.165
	c-17.951-17.055-140.402-69.275-148.006,0C923.986,962.498,1302.959,1056.302,1224.23,818.165z"/>
</svg>
