<?xml version="1.0" encoding="utf-8"?>
<!-- Generator: Adobe Illustrator 15.1.0, SVG Export Plug-In . SVG Version: 6.00 Build 0)  -->
<!DOCTYPE svg PUBLIC "-//W3C//DTD SVG 1.1//EN" "http://www.w3.org/Graphics/SVG/1.1/DTD/svg11.dtd">
<svg version="1.1" id="Layer_1" xmlns="http://www.w3.org/2000/svg" xmlns:xlink="http://www.w3.org/1999/xlink" x="0px" y="0px"
	 width="1417.32px" height="1417.32px" viewBox="0 0 1417.32 1417.32" enable-background="new 0 0 1417.32 1417.32"
	 xml:space="preserve">
<path fill="#FFFFFF" d="M1811.788,267.137"/>
<path fill="#FFFFFF" d="M-121.096,46"/>
<path d="M1020.896,237.309c0,59.351,0,118.689,0,178.04c218.998,43.827,333.018,192.62,305.211,483.251
	c-184.226-40.088-118.328,169.92-279.776,152.605c-32.874-51.911-123.296-46.26-101.736-152.605c-110.22,0-220.428,0-330.646,0
	c-31.557,61.712-68.095,118.417-127.171,152.605C325.328,1068.52,391.224,858.512,207,898.6c0-194.99,0-389.996,0-584.988
	C354.14,164.011,755.004,268.146,1020.896,237.309z M1020.896,644.258c69.024-15.748,201.848,32.289,228.907-25.435
	c-52.246-7.092-50.757-67.934-76.302-101.737c-50.869,0-101.737,0-152.605,0C1020.896,559.472,1020.896,601.871,1020.896,644.258z
	 M537.645,847.731c-15.424-14.654-120.639-59.524-127.17,0C279.664,971.748,605.292,1052.349,537.645,847.731z M1148.068,847.731
	c-15.426-14.654-120.641-59.524-127.172,0C890.087,971.748,1215.715,1052.349,1148.068,847.731z"/>
</svg>
