<?xml version="1.0" encoding="utf-8"?>
<!-- Generator: Adobe Illustrator 15.1.0, SVG Export Plug-In . SVG Version: 6.00 Build 0)  -->
<!DOCTYPE svg PUBLIC "-//W3C//DTD SVG 1.1//EN" "http://www.w3.org/Graphics/SVG/1.1/DTD/svg11.dtd">
<svg version="1.1" id="Layer_1" xmlns="http://www.w3.org/2000/svg" xmlns:xlink="http://www.w3.org/1999/xlink" x="0px" y="0px"
	 width="1417.32px" height="1417.32px" viewBox="0 0 1417.32 1417.32" enable-background="new 0 0 1417.32 1417.32"
	 xml:space="preserve">
<path fill="#FFFFFF" d="M1811.788,267.137"/>
<path fill="#FFFFFF" d="M-121.096,46"/>
<path d="M1252.359,289.297c42.285,203.193,42.285,560.607,0,763.801c-71.891,103.704-373.824-22.636-368.729,158.026
	c-114.149,0-228.247,0-342.395,0c-41.898-133.695-252.757-98.407-395.07-131.688c-42.387-211.396-42.387-578.739,0-790.139
	C463.275,246.961,935.248,246.961,1252.359,289.297z M225.18,1000.422c316.056,0,632.111,0,948.167,0c0-210.703,0-421.407,0-632.111
	c-316.057,0-632.11,0-948.167,0C225.18,579.015,225.18,789.719,225.18,1000.422z"/>
</svg>
