<?xml version="1.0" encoding="utf-8"?>
<!-- Generator: Adobe Illustrator 15.1.0, SVG Export Plug-In . SVG Version: 6.00 Build 0)  -->
<!DOCTYPE svg PUBLIC "-//W3C//DTD SVG 1.1//EN" "http://www.w3.org/Graphics/SVG/1.1/DTD/svg11.dtd">
<svg version="1.1" id="Layer_1" xmlns="http://www.w3.org/2000/svg" xmlns:xlink="http://www.w3.org/1999/xlink" x="0px" y="0px"
	 width="1417.32px" height="1417.32px" viewBox="0 0 1417.32 1417.32" enable-background="new 0 0 1417.32 1417.32"
	 xml:space="preserve">
<path fill-rule="evenodd" clip-rule="evenodd" fill="#FFFFFF" d="M1811.788,267.137"/>
<path fill-rule="evenodd" clip-rule="evenodd" fill="#FFFFFF" d="M-121.096,46"/>
<path fill-rule="evenodd" clip-rule="evenodd" d="M880.406,140.101c0,19.333,0,38.679,0,58.012
	c-58.459,72.854-198.461,72.854-256.92,0c0-19.333,0-38.679,0-58.012C681.945,67.247,821.947,67.247,880.406,140.101z"/>
<path fill-rule="evenodd" clip-rule="evenodd" d="M1105.209,633.198c-67.962,151.53-282.949-22.746-353.263-58.011
	c-145.111,201.908,259.206,401.039,64.229,725.143c-225.745-18.469,24.273-466.698-224.803-464.092
	c-110.458,112.935-33.747,394.947-192.69,464.092c-88.125-160.863,101.05-563.288,128.46-812.16
	C326.3,432.453,450.496,670.305,366.57,720.216c-171.425,38.808-68.745-169.941-96.343-261.052
	C654.191,176.273,783.15,502.134,1105.209,633.198z"/>
</svg>
